<?xml version="1.0" encoding="UTF-8" standalone="no"?>
<svg
   xmlns:dc="http://purl.org/dc/elements/1.1/"
   xmlns:cc="http://creativecommons.org/ns#"
   xmlns:rdf="http://www.w3.org/1999/02/22-rdf-syntax-ns#"
   xmlns:svg="http://www.w3.org/2000/svg"
   xmlns="http://www.w3.org/2000/svg"
   xmlns:sodipodi="http://sodipodi.sourceforge.net/DTD/sodipodi-0.dtd"
   xmlns:inkscape="http://www.inkscape.org/namespaces/inkscape"
   version="1.1"
   viewBox="0.0 0.0 960.0 540.0"
   fill="none"
   stroke="none"
   stroke-linecap="square"
   stroke-miterlimit="10"
   id="svg545"
   sodipodi:docname="continual familiarity(1).svg"
   inkscape:version="0.92.3 (2405546, 2018-03-11)">
  <metadata
     id="metadata551">
    <rdf:RDF>
      <cc:Work
         rdf:about="">
        <dc:format>image/svg+xml</dc:format>
        <dc:type
           rdf:resource="http://purl.org/dc/dcmitype/StillImage" />
      </cc:Work>
    </rdf:RDF>
  </metadata>
  <defs
     id="defs549" />
  <sodipodi:namedview
     pagecolor="#ffffff"
     bordercolor="#666666"
     borderopacity="1"
     objecttolerance="10"
     gridtolerance="10"
     guidetolerance="10"
     inkscape:pageopacity="0"
     inkscape:pageshadow="2"
     inkscape:window-width="2560"
     inkscape:window-height="1299"
     id="namedview547"
     showgrid="false"
     inkscape:zoom="1.2361274"
     inkscape:cx="323.43389"
     inkscape:cy="260.96142"
     inkscape:window-x="-13"
     inkscape:window-y="-13"
     inkscape:window-maximized="1"
     inkscape:current-layer="svg545" />
  <clipPath
     id="g32d41fd4a3d_0_0.0">
    <path
       d="m0 0l960.0 0l0 540.0l-960.0 0l0 -540.0z"
       clip-rule="nonzero"
       id="path2" />
  </clipPath>
  <g
     clip-path="url(#g32d41fd4a3d_0_0.0)"
     id="g543"
     transform="translate(-2.2881356)">
    <path
       d="M 0,0 H 960 V 540 H 0 Z"
       id="path5"
       inkscape:connector-curvature="0"
       style="fill:#ffffff;fill-rule:evenodd" />
    <path
       d="m 340.43832,89.71916 h 206.48819 v 98.14172 H 340.43832 Z"
       id="path7"
       inkscape:connector-curvature="0"
       style="fill:#000000;fill-opacity:0;fill-rule:evenodd" />
    <path
       d="m 340.43832,89.71916 h 206.48819 v 98.14172 H 340.43832 Z"
       id="path9"
       inkscape:connector-curvature="0"
       style="fill-rule:evenodd;stroke:#000000;stroke-width:1;stroke-linecap:butt;stroke-linejoin:round" />
    <path
       d="M 91.6168,233.31496 H 298.10499 V 331.4567 H 91.6168 Z"
       id="path11"
       inkscape:connector-curvature="0"
       style="fill:#000000;fill-opacity:0;fill-rule:evenodd" />
    <path
       d="M 91.6168,233.31496 H 298.10499 V 331.4567 H 91.6168 Z"
       id="path13"
       inkscape:connector-curvature="0"
       style="fill-rule:evenodd;stroke:#000000;stroke-width:1;stroke-linecap:butt;stroke-linejoin:round" />
    <path
       d="M 340.4672,233.31496 H 546.95539 V 331.4567 H 340.4672 Z"
       id="path15"
       inkscape:connector-curvature="0"
       style="fill:#000000;fill-opacity:0;fill-rule:evenodd" />
    <path
       d="M 340.4672,233.31496 H 546.95539 V 331.4567 H 340.4672 Z"
       id="path17"
       inkscape:connector-curvature="0"
       style="fill-rule:evenodd;stroke:#000000;stroke-width:1;stroke-linecap:butt;stroke-linejoin:round" />
    <path
       d="m 91.58793,89.71916 h 206.48819 v 98.14172 H 91.58793 Z"
       id="path19"
       inkscape:connector-curvature="0"
       style="fill:#000000;fill-opacity:0;fill-rule:evenodd" />
    <path
       d="m 91.58793,89.71916 h 206.48819 v 98.14172 H 91.58793 Z"
       id="path21"
       inkscape:connector-curvature="0"
       style="fill-rule:evenodd;stroke:#000000;stroke-width:1;stroke-linecap:butt;stroke-linejoin:round" />
    <path
       d="m 103.86089,104.64567 v 14.33071"
       id="path23"
       inkscape:connector-curvature="0"
       style="fill:#000000;fill-opacity:0;fill-rule:evenodd" />
    <path
       d="m 103.86089,104.64567 v 14.33071"
       id="path25"
       inkscape:connector-curvature="0"
       style="fill-rule:evenodd;stroke:#000000;stroke-width:1;stroke-linecap:butt;stroke-linejoin:round" />
    <path
       d="m 117.67191,104.64567 v 14.33071"
       id="path27"
       inkscape:connector-curvature="0"
       style="fill:#000000;fill-opacity:0;fill-rule:evenodd" />
    <path
       d="m 117.67191,104.64567 v 14.33071"
       id="path29"
       inkscape:connector-curvature="0"
       style="fill-rule:evenodd;stroke:#000000;stroke-width:1;stroke-linecap:butt;stroke-linejoin:round" />
    <path
       d="m 125.82677,104.64567 v 14.33071"
       id="path31"
       inkscape:connector-curvature="0"
       style="fill:#000000;fill-opacity:0;fill-rule:evenodd" />
    <path
       d="m 125.82677,104.64567 v 14.33071"
       id="path33"
       inkscape:connector-curvature="0"
       style="fill-rule:evenodd;stroke:#000000;stroke-width:1;stroke-linecap:butt;stroke-linejoin:round" />
    <path
       d="m 128.62466,104.64567 v 14.33071"
       id="path35"
       inkscape:connector-curvature="0"
       style="fill:#000000;fill-opacity:0;fill-rule:evenodd" />
    <path
       d="m 128.62466,104.64567 v 14.33071"
       id="path37"
       inkscape:connector-curvature="0"
       style="fill-rule:evenodd;stroke:#000000;stroke-width:1;stroke-linecap:butt;stroke-linejoin:round" />
    <path
       d="m 146.56168,104.64567 v 14.33071"
       id="path39"
       inkscape:connector-curvature="0"
       style="fill:#000000;fill-opacity:0;fill-rule:evenodd" />
    <path
       d="m 146.56168,104.64567 v 14.33071"
       id="path41"
       inkscape:connector-curvature="0"
       style="fill-rule:evenodd;stroke:#000000;stroke-width:1;stroke-linecap:butt;stroke-linejoin:round" />
    <path
       d="m 136.19423,104.64567 v 14.33071"
       id="path43"
       inkscape:connector-curvature="0"
       style="fill:#000000;fill-opacity:0;fill-rule:evenodd" />
    <path
       d="m 136.19423,104.64567 v 14.33071"
       id="path45"
       inkscape:connector-curvature="0"
       style="fill-rule:evenodd;stroke:#000000;stroke-width:1;stroke-linecap:butt;stroke-linejoin:round" />
    <path
       d="m 110.34121,104.64567 v 14.33071"
       id="path47"
       inkscape:connector-curvature="0"
       style="fill:#000000;fill-opacity:0;fill-rule:evenodd" />
    <path
       d="m 110.34121,104.64567 v 14.33071"
       id="path49"
       inkscape:connector-curvature="0"
       style="fill-rule:evenodd;stroke:#000000;stroke-width:1;stroke-linecap:butt;stroke-linejoin:round" />
    <path
       d="m 156.13649,104.64567 v 14.33071"
       id="path51"
       inkscape:connector-curvature="0"
       style="fill:#000000;fill-opacity:0;fill-rule:evenodd" />
    <path
       d="m 156.13649,104.64567 v 14.33071"
       id="path53"
       inkscape:connector-curvature="0"
       style="fill-rule:evenodd;stroke:#000000;stroke-width:1;stroke-linecap:butt;stroke-linejoin:round" />
    <path
       d="m 103.80398,159.12395 v 14.3307"
       id="path55"
       inkscape:connector-curvature="0"
       style="fill:#000000;fill-opacity:0;fill-rule:evenodd" />
    <path
       d="m 103.80398,159.12395 v 14.3307"
       id="path57"
       inkscape:connector-curvature="0"
       style="fill-rule:evenodd;stroke:#000000;stroke-width:1;stroke-linecap:butt;stroke-linejoin:round" />
    <path
       d="m 106.57822,159.12395 v 14.3307"
       id="path59"
       inkscape:connector-curvature="0"
       style="fill:#000000;fill-opacity:0;fill-rule:evenodd" />
    <path
       d="m 106.57822,159.12395 v 14.3307"
       id="path61"
       inkscape:connector-curvature="0"
       style="fill-rule:evenodd;stroke:#000000;stroke-width:1;stroke-linecap:butt;stroke-linejoin:round" />
    <path
       d="m 119.95073,159.12395 v 14.3307"
       id="path63"
       inkscape:connector-curvature="0"
       style="fill:#000000;fill-opacity:0;fill-rule:evenodd" />
    <path
       d="m 119.95073,159.12395 v 14.3307"
       id="path65"
       inkscape:connector-curvature="0"
       style="fill-rule:evenodd;stroke:#000000;stroke-width:1;stroke-linecap:butt;stroke-linejoin:round" />
    <path
       d="m 153.54362,159.12395 v 14.3307"
       id="path67"
       inkscape:connector-curvature="0"
       style="fill:#000000;fill-opacity:0;fill-rule:evenodd" />
    <path
       d="m 153.54362,159.12395 v 14.3307"
       id="path69"
       inkscape:connector-curvature="0"
       style="fill-rule:evenodd;stroke:#000000;stroke-width:1;stroke-linecap:butt;stroke-linejoin:round" />
    <path
       d="m 130.06061,159.12395 v 14.3307"
       id="path71"
       inkscape:connector-curvature="0"
       style="fill:#000000;fill-opacity:0;fill-rule:evenodd" />
    <path
       d="m 130.06061,159.12395 v 14.3307"
       id="path73"
       inkscape:connector-curvature="0"
       style="fill-rule:evenodd;stroke:#000000;stroke-width:1;stroke-linecap:butt;stroke-linejoin:round" />
    <path
       d="m 136.19434,159.12395 v 14.3307"
       id="path75"
       inkscape:connector-curvature="0"
       style="fill:#000000;fill-opacity:0;fill-rule:evenodd" />
    <path
       d="m 136.19434,159.12395 v 14.3307"
       id="path77"
       inkscape:connector-curvature="0"
       style="fill-rule:evenodd;stroke:#000000;stroke-width:1;stroke-linecap:butt;stroke-linejoin:round" />
    <path
       d="m 147.63518,159.12395 v 14.3307"
       id="path79"
       inkscape:connector-curvature="0"
       style="fill:#000000;fill-opacity:0;fill-rule:evenodd" />
    <path
       d="m 147.63518,159.12395 v 14.3307"
       id="path81"
       inkscape:connector-curvature="0"
       style="fill-rule:evenodd;stroke:#000000;stroke-width:1;stroke-linecap:butt;stroke-linejoin:round" />
    <path
       d="m 170.16273,166.28871 v 0 c 0,-6.43607 5.21747,-11.65353 11.65353,-11.65353 v 0 c 3.09072,0 6.05484,1.22776 8.24031,3.41323 2.18546,2.18546 3.41324,5.14959 3.41324,8.2403 v 0 c 0,6.43608 -5.21746,11.65355 -11.65355,11.65355 v 0 c -6.43606,0 -11.65353,-5.21747 -11.65353,-11.65355 z"
       id="path83"
       inkscape:connector-curvature="0"
       style="fill:#eeeeee;fill-rule:evenodd" />
    <path
       d="m 170.16273,166.28871 v 0 c 0,-6.43607 5.21747,-11.65353 11.65353,-11.65353 v 0 c 3.09072,0 6.05484,1.22776 8.24031,3.41323 2.18546,2.18546 3.41324,5.14959 3.41324,8.2403 v 0 c 0,6.43608 -5.21746,11.65355 -11.65355,11.65355 v 0 c -6.43606,0 -11.65353,-5.21747 -11.65353,-11.65355 z"
       id="path85"
       inkscape:connector-curvature="0"
       style="fill-rule:evenodd;stroke:#45818e;stroke-width:2;stroke-linecap:butt;stroke-linejoin:round" />
    <path
       d="m 170.02887,111.81102 v 0 c 0,-6.43607 5.21747,-11.65354 11.65355,-11.65354 v 0 c 3.09071,0 6.05482,1.22778 8.24029,3.41324 2.18547,2.18547 3.41324,5.14959 3.41324,8.2403 v 0 c 0,6.43608 -5.21747,11.65355 -11.65353,11.65355 v 0 c -6.43608,0 -11.65355,-5.21747 -11.65355,-11.65355 z"
       id="path87"
       inkscape:connector-curvature="0"
       style="fill:#eeeeee;fill-rule:evenodd" />
    <path
       d="m 170.02887,111.81102 v 0 c 0,-6.43607 5.21747,-11.65354 11.65355,-11.65354 v 0 c 3.09071,0 6.05482,1.22778 8.24029,3.41324 2.18547,2.18547 3.41324,5.14959 3.41324,8.2403 v 0 c 0,6.43608 -5.21747,11.65355 -11.65353,11.65355 v 0 c -6.43608,0 -11.65355,-5.21747 -11.65355,-11.65355 z"
       id="path89"
       inkscape:connector-curvature="0"
       style="fill-rule:evenodd;stroke:#45818e;stroke-width:2;stroke-linecap:butt;stroke-linejoin:round" />
    <path
       d="m 181.68242,123.46457 0.12598,31.18111"
       id="path91"
       inkscape:connector-curvature="0"
       style="fill:#000000;fill-opacity:0;fill-rule:evenodd" />
    <path
       d="m 181.68242,123.46457 0.12598,31.18111"
       id="path93"
       inkscape:connector-curvature="0"
       style="fill-rule:evenodd;stroke:#d95e10;stroke-width:4;stroke-linecap:butt;stroke-linejoin:round" />
    <path
       d="m 231.86089,104.64567 v 14.33071"
       id="path95"
       inkscape:connector-curvature="0"
       style="fill:#000000;fill-opacity:0;fill-rule:evenodd" />
    <path
       d="m 231.86089,104.64567 v 14.33071"
       id="path97"
       inkscape:connector-curvature="0"
       style="fill-rule:evenodd;stroke:#000000;stroke-width:1;stroke-linecap:butt;stroke-linejoin:round" />
    <path
       d="m 253.04199,104.64567 v 14.33071"
       id="path99"
       inkscape:connector-curvature="0"
       style="fill:#000000;fill-opacity:0;fill-rule:evenodd" />
    <path
       d="m 253.04199,104.64567 v 14.33071"
       id="path101"
       inkscape:connector-curvature="0"
       style="fill-rule:evenodd;stroke:#000000;stroke-width:1;stroke-linecap:butt;stroke-linejoin:round" />
    <path
       d="m 264.98688,104.64567 v 14.33071"
       id="path103"
       inkscape:connector-curvature="0"
       style="fill:#000000;fill-opacity:0;fill-rule:evenodd" />
    <path
       d="m 264.98688,104.64567 v 14.33071"
       id="path105"
       inkscape:connector-curvature="0"
       style="fill-rule:evenodd;stroke:#000000;stroke-width:1;stroke-linecap:butt;stroke-linejoin:round" />
    <path
       d="m 272.19946,104.64567 v 14.33071"
       id="path107"
       inkscape:connector-curvature="0"
       style="fill:#000000;fill-opacity:0;fill-rule:evenodd" />
    <path
       d="m 272.19946,104.64567 v 14.33071"
       id="path109"
       inkscape:connector-curvature="0"
       style="fill-rule:evenodd;stroke:#000000;stroke-width:1;stroke-linecap:butt;stroke-linejoin:round" />
    <path
       d="m 240.39108,104.64567 v 14.33071"
       id="path111"
       inkscape:connector-curvature="0"
       style="fill:#000000;fill-opacity:0;fill-rule:evenodd" />
    <path
       d="m 240.39108,104.64567 v 14.33071"
       id="path113"
       inkscape:connector-curvature="0"
       style="fill-rule:evenodd;stroke:#000000;stroke-width:1;stroke-linecap:butt;stroke-linejoin:round" />
    <path
       d="m 282.8189,104.64567 v 14.33071"
       id="path115"
       inkscape:connector-curvature="0"
       style="fill:#000000;fill-opacity:0;fill-rule:evenodd" />
    <path
       d="m 282.8189,104.64567 v 14.33071"
       id="path117"
       inkscape:connector-curvature="0"
       style="fill-rule:evenodd;stroke:#000000;stroke-width:1;stroke-linecap:butt;stroke-linejoin:round" />
    <path
       d="m 248.41208,104.64567 v 14.33071"
       id="path119"
       inkscape:connector-curvature="0"
       style="fill:#000000;fill-opacity:0;fill-rule:evenodd" />
    <path
       d="m 248.41208,104.64567 v 14.33071"
       id="path121"
       inkscape:connector-curvature="0"
       style="fill-rule:evenodd;stroke:#000000;stroke-width:1;stroke-linecap:butt;stroke-linejoin:round" />
    <path
       d="m 286.61417,104.64567 v 14.33071"
       id="path123"
       inkscape:connector-curvature="0"
       style="fill:#000000;fill-opacity:0;fill-rule:evenodd" />
    <path
       d="m 286.61417,104.64567 v 14.33071"
       id="path125"
       inkscape:connector-curvature="0"
       style="fill-rule:evenodd;stroke:#000000;stroke-width:1;stroke-linecap:butt;stroke-linejoin:round" />
    <path
       d="m 112.76903,104.64567 v 14.33071"
       id="path127"
       inkscape:connector-curvature="0"
       style="fill:#000000;fill-opacity:0;fill-rule:evenodd" />
    <path
       d="m 112.76903,104.64567 v 14.33071"
       id="path129"
       inkscape:connector-curvature="0"
       style="fill-rule:evenodd;stroke:#000000;stroke-width:1;stroke-linecap:butt;stroke-linejoin:round" />
    <path
       d="m 156.13649,159.12395 v 14.3307"
       id="path131"
       inkscape:connector-curvature="0"
       style="fill:#000000;fill-opacity:0;fill-rule:evenodd" />
    <path
       d="m 156.13649,159.12395 v 14.3307"
       id="path133"
       inkscape:connector-curvature="0"
       style="fill-rule:evenodd;stroke:#000000;stroke-width:1;stroke-linecap:butt;stroke-linejoin:round" />
    <path
       d="m 125.10786,159.12395 v 14.3307"
       id="path135"
       inkscape:connector-curvature="0"
       style="fill:#000000;fill-opacity:0;fill-rule:evenodd" />
    <path
       d="m 125.10786,159.12395 v 14.3307"
       id="path137"
       inkscape:connector-curvature="0"
       style="fill-rule:evenodd;stroke:#000000;stroke-width:1;stroke-linecap:butt;stroke-linejoin:round" />
    <path
       d="m 231.85957,159.12335 v 14.33072"
       id="path139"
       inkscape:connector-curvature="0"
       style="fill:#000000;fill-opacity:0;fill-rule:evenodd" />
    <path
       d="m 231.85957,159.12335 v 14.33072"
       id="path141"
       inkscape:connector-curvature="0"
       style="fill-rule:evenodd;stroke:#000000;stroke-width:1;stroke-linecap:butt;stroke-linejoin:round" />
    <path
       d="m 253.04068,159.12335 v 14.33072"
       id="path143"
       inkscape:connector-curvature="0"
       style="fill:#000000;fill-opacity:0;fill-rule:evenodd" />
    <path
       d="m 253.04068,159.12335 v 14.33072"
       id="path145"
       inkscape:connector-curvature="0"
       style="fill-rule:evenodd;stroke:#000000;stroke-width:1;stroke-linecap:butt;stroke-linejoin:round" />
    <path
       d="m 264.98557,159.12335 v 14.33072"
       id="path147"
       inkscape:connector-curvature="0"
       style="fill:#000000;fill-opacity:0;fill-rule:evenodd" />
    <path
       d="m 264.98557,159.12335 v 14.33072"
       id="path149"
       inkscape:connector-curvature="0"
       style="fill-rule:evenodd;stroke:#000000;stroke-width:1;stroke-linecap:butt;stroke-linejoin:round" />
    <path
       d="m 272.19815,159.12335 v 14.33072"
       id="path151"
       inkscape:connector-curvature="0"
       style="fill:#000000;fill-opacity:0;fill-rule:evenodd" />
    <path
       d="m 272.19815,159.12335 v 14.33072"
       id="path153"
       inkscape:connector-curvature="0"
       style="fill-rule:evenodd;stroke:#000000;stroke-width:1;stroke-linecap:butt;stroke-linejoin:round" />
    <path
       d="m 240.38977,159.12335 v 14.33072"
       id="path155"
       inkscape:connector-curvature="0"
       style="fill:#000000;fill-opacity:0;fill-rule:evenodd" />
    <path
       d="m 240.38977,159.12335 v 14.33072"
       id="path157"
       inkscape:connector-curvature="0"
       style="fill-rule:evenodd;stroke:#000000;stroke-width:1;stroke-linecap:butt;stroke-linejoin:round" />
    <path
       d="m 282.8176,159.12335 v 14.33072"
       id="path159"
       inkscape:connector-curvature="0"
       style="fill:#000000;fill-opacity:0;fill-rule:evenodd" />
    <path
       d="m 282.8176,159.12335 v 14.33072"
       id="path161"
       inkscape:connector-curvature="0"
       style="fill-rule:evenodd;stroke:#000000;stroke-width:1;stroke-linecap:butt;stroke-linejoin:round" />
    <path
       d="m 248.41077,159.12335 v 14.33072"
       id="path163"
       inkscape:connector-curvature="0"
       style="fill:#000000;fill-opacity:0;fill-rule:evenodd" />
    <path
       d="m 248.41077,159.12335 v 14.33072"
       id="path165"
       inkscape:connector-curvature="0"
       style="fill-rule:evenodd;stroke:#000000;stroke-width:1;stroke-linecap:butt;stroke-linejoin:round" />
    <path
       d="m 286.61285,159.12335 v 14.33072"
       id="path167"
       inkscape:connector-curvature="0"
       style="fill:#000000;fill-opacity:0;fill-rule:evenodd" />
    <path
       d="m 286.61285,159.12335 v 14.33072"
       id="path169"
       inkscape:connector-curvature="0"
       style="fill-rule:evenodd;stroke:#000000;stroke-width:1;stroke-linecap:butt;stroke-linejoin:round" />
    <path
       d="m 201.06036,111.81102 h 19.65355"
       id="path171"
       inkscape:connector-curvature="0"
       style="fill:#000000;fill-opacity:0;fill-rule:evenodd" />
    <path
       d="m 201.06036,111.81102 h 16.22647"
       id="path173"
       inkscape:connector-curvature="0"
       style="fill-rule:evenodd;stroke:#434343;stroke-width:1;stroke-linecap:butt;stroke-linejoin:round" />
    <path
       d="m 217.28682,111.81102 -1.12457,1.12459 3.08976,-1.12459 -3.08976,-1.12458 z"
       id="path175"
       inkscape:connector-curvature="0"
       style="fill:#434343;fill-rule:evenodd;stroke:#434343;stroke-width:1;stroke-linecap:butt" />
    <path
       d="m 200.73491,166.28871 h 19.65355"
       id="path177"
       inkscape:connector-curvature="0"
       style="fill:#000000;fill-opacity:0;fill-rule:evenodd" />
    <path
       d="m 200.73491,166.28871 h 16.22646"
       id="path179"
       inkscape:connector-curvature="0"
       style="fill-rule:evenodd;stroke:#434343;stroke-width:1;stroke-linecap:butt;stroke-linejoin:round" />
    <path
       d="m 216.96136,166.28871 -1.12459,1.12459 3.08977,-1.12459 -3.08977,-1.12459 z"
       id="path181"
       inkscape:connector-curvature="0"
       style="fill:#434343;fill-rule:evenodd;stroke:#434343;stroke-width:1;stroke-linecap:butt" />
    <path
       d="M 103.86089,247.97638 V 262.3071"
       id="path183"
       inkscape:connector-curvature="0"
       style="fill:#000000;fill-opacity:0;fill-rule:evenodd" />
    <path
       d="M 103.86089,247.97638 V 262.3071"
       id="path185"
       inkscape:connector-curvature="0"
       style="fill-rule:evenodd;stroke:#000000;stroke-width:1;stroke-linecap:butt;stroke-linejoin:round" />
    <path
       d="M 117.67191,247.97638 V 262.3071"
       id="path187"
       inkscape:connector-curvature="0"
       style="fill:#000000;fill-opacity:0;fill-rule:evenodd" />
    <path
       d="M 117.67191,247.97638 V 262.3071"
       id="path189"
       inkscape:connector-curvature="0"
       style="fill-rule:evenodd;stroke:#000000;stroke-width:1;stroke-linecap:butt;stroke-linejoin:round" />
    <path
       d="M 123.09449,247.97638 V 262.3071"
       id="path191"
       inkscape:connector-curvature="0"
       style="fill:#000000;fill-opacity:0;fill-rule:evenodd" />
    <path
       d="M 123.09449,247.97638 V 262.3071"
       id="path193"
       inkscape:connector-curvature="0"
       style="fill-rule:evenodd;stroke:#000000;stroke-width:1;stroke-linecap:butt;stroke-linejoin:round" />
    <path
       d="M 136.19423,247.97638 V 262.3071"
       id="path195"
       inkscape:connector-curvature="0"
       style="fill:#000000;fill-opacity:0;fill-rule:evenodd" />
    <path
       d="M 136.19423,247.97638 V 262.3071"
       id="path197"
       inkscape:connector-curvature="0"
       style="fill-rule:evenodd;stroke:#000000;stroke-width:1;stroke-linecap:butt;stroke-linejoin:round" />
    <path
       d="M 156.13649,247.97638 V 262.3071"
       id="path199"
       inkscape:connector-curvature="0"
       style="fill:#000000;fill-opacity:0;fill-rule:evenodd" />
    <path
       d="M 156.13649,247.97638 V 262.3071"
       id="path201"
       inkscape:connector-curvature="0"
       style="fill-rule:evenodd;stroke:#000000;stroke-width:1;stroke-linecap:butt;stroke-linejoin:round" />
    <path
       d="m 106.57822,302.45465 v 14.33072"
       id="path203"
       inkscape:connector-curvature="0"
       style="fill:#000000;fill-opacity:0;fill-rule:evenodd" />
    <path
       d="m 106.57822,302.45465 v 14.33072"
       id="path205"
       inkscape:connector-curvature="0"
       style="fill-rule:evenodd;stroke:#000000;stroke-width:1;stroke-linecap:butt;stroke-linejoin:round" />
    <path
       d="m 125.10822,302.45465 v 14.33072"
       id="path207"
       inkscape:connector-curvature="0"
       style="fill:#000000;fill-opacity:0;fill-rule:evenodd" />
    <path
       d="m 125.10822,302.45465 v 14.33072"
       id="path209"
       inkscape:connector-curvature="0"
       style="fill-rule:evenodd;stroke:#000000;stroke-width:1;stroke-linecap:butt;stroke-linejoin:round" />
    <path
       d="m 153.54362,302.45465 v 14.33072"
       id="path211"
       inkscape:connector-curvature="0"
       style="fill:#000000;fill-opacity:0;fill-rule:evenodd" />
    <path
       d="m 153.54362,302.45465 v 14.33072"
       id="path213"
       inkscape:connector-curvature="0"
       style="fill-rule:evenodd;stroke:#000000;stroke-width:1;stroke-linecap:butt;stroke-linejoin:round" />
    <path
       d="m 136.19434,302.45465 v 14.33072"
       id="path215"
       inkscape:connector-curvature="0"
       style="fill:#000000;fill-opacity:0;fill-rule:evenodd" />
    <path
       d="m 136.19434,302.45465 v 14.33072"
       id="path217"
       inkscape:connector-curvature="0"
       style="fill-rule:evenodd;stroke:#000000;stroke-width:1;stroke-linecap:butt;stroke-linejoin:round" />
    <path
       d="m 170.16273,309.61942 v 0 c 0,-6.43607 5.21747,-11.65353 11.65353,-11.65353 v 0 c 3.09072,0 6.05484,1.22778 8.24031,3.41323 2.18546,2.18546 3.41324,5.1496 3.41324,8.2403 v 0 c 0,6.4361 -5.21746,11.65356 -11.65355,11.65356 v 0 c -6.43606,0 -11.65353,-5.21746 -11.65353,-11.65356 z"
       id="path219"
       inkscape:connector-curvature="0"
       style="fill:#eeeeee;fill-rule:evenodd" />
    <path
       d="m 170.16273,309.61942 v 0 c 0,-6.43607 5.21747,-11.65353 11.65353,-11.65353 v 0 c 3.09072,0 6.05484,1.22778 8.24031,3.41323 2.18546,2.18546 3.41324,5.1496 3.41324,8.2403 v 0 c 0,6.4361 -5.21746,11.65356 -11.65355,11.65356 v 0 c -6.43606,0 -11.65353,-5.21746 -11.65353,-11.65356 z"
       id="path221"
       inkscape:connector-curvature="0"
       style="fill-rule:evenodd;stroke:#45818e;stroke-width:2;stroke-linecap:butt;stroke-linejoin:round" />
    <path
       d="m 170.02887,255.14174 v 0 c 0,-6.43608 5.21747,-11.65355 11.65355,-11.65355 v 0 c 3.09071,0 6.05482,1.22778 8.24029,3.41324 2.18547,2.18547 3.41324,5.1496 3.41324,8.24031 v 0 c 0,6.43608 -5.21747,11.65355 -11.65353,11.65355 v 0 c -6.43608,0 -11.65355,-5.21747 -11.65355,-11.65355 z"
       id="path223"
       inkscape:connector-curvature="0"
       style="fill:#eeeeee;fill-rule:evenodd" />
    <path
       d="m 170.02887,255.14174 v 0 c 0,-6.43608 5.21747,-11.65355 11.65355,-11.65355 v 0 c 3.09071,0 6.05482,1.22778 8.24029,3.41324 2.18547,2.18547 3.41324,5.1496 3.41324,8.24031 v 0 c 0,6.43608 -5.21747,11.65355 -11.65353,11.65355 v 0 c -6.43608,0 -11.65355,-5.21747 -11.65355,-11.65355 z"
       id="path225"
       inkscape:connector-curvature="0"
       style="fill-rule:evenodd;stroke:#45818e;stroke-width:2;stroke-linecap:butt;stroke-linejoin:round" />
    <path
       d="m 181.68242,266.7953 0.12598,31.18109"
       id="path227"
       inkscape:connector-curvature="0"
       style="fill:#000000;fill-opacity:0;fill-rule:evenodd" />
    <path
       d="m 181.68242,266.7953 0.12598,31.18109"
       id="path229"
       inkscape:connector-curvature="0"
       style="fill-rule:evenodd;stroke:#d95e10;stroke-width:4;stroke-linecap:butt;stroke-linejoin:round" />
    <path
       d="M 231.86089,247.97638 V 262.3071"
       id="path231"
       inkscape:connector-curvature="0"
       style="fill:#000000;fill-opacity:0;fill-rule:evenodd" />
    <path
       d="M 231.86089,247.97638 V 262.3071"
       id="path233"
       inkscape:connector-curvature="0"
       style="fill-rule:evenodd;stroke:#000000;stroke-width:1;stroke-linecap:butt;stroke-linejoin:round" />
    <path
       d="M 264.98688,247.97638 V 262.3071"
       id="path235"
       inkscape:connector-curvature="0"
       style="fill:#000000;fill-opacity:0;fill-rule:evenodd" />
    <path
       d="M 264.98688,247.97638 V 262.3071"
       id="path237"
       inkscape:connector-curvature="0"
       style="fill-rule:evenodd;stroke:#000000;stroke-width:1;stroke-linecap:butt;stroke-linejoin:round" />
    <path
       d="M 272.19946,247.97638 V 262.3071"
       id="path239"
       inkscape:connector-curvature="0"
       style="fill:#000000;fill-opacity:0;fill-rule:evenodd" />
    <path
       d="M 272.19946,247.97638 V 262.3071"
       id="path241"
       inkscape:connector-curvature="0"
       style="fill-rule:evenodd;stroke:#000000;stroke-width:1;stroke-linecap:butt;stroke-linejoin:round" />
    <path
       d="M 245.04462,247.97638 V 262.3071"
       id="path243"
       inkscape:connector-curvature="0"
       style="fill:#000000;fill-opacity:0;fill-rule:evenodd" />
    <path
       d="M 245.04462,247.97638 V 262.3071"
       id="path245"
       inkscape:connector-curvature="0"
       style="fill-rule:evenodd;stroke:#000000;stroke-width:1;stroke-linecap:butt;stroke-linejoin:round" />
    <path
       d="M 286.61417,247.97638 V 262.3071"
       id="path247"
       inkscape:connector-curvature="0"
       style="fill:#000000;fill-opacity:0;fill-rule:evenodd" />
    <path
       d="M 286.61417,247.97638 V 262.3071"
       id="path249"
       inkscape:connector-curvature="0"
       style="fill-rule:evenodd;stroke:#000000;stroke-width:1;stroke-linecap:butt;stroke-linejoin:round" />
    <path
       d="m 150.50394,302.45465 v 14.33072"
       id="path251"
       inkscape:connector-curvature="0"
       style="fill:#000000;fill-opacity:0;fill-rule:evenodd" />
    <path
       d="m 150.50394,302.45465 v 14.33072"
       id="path253"
       inkscape:connector-curvature="0"
       style="fill-rule:evenodd;stroke:#000000;stroke-width:1;stroke-linecap:butt;stroke-linejoin:round" />
    <path
       d="m 231.85957,302.45407 v 14.33072"
       id="path255"
       inkscape:connector-curvature="0"
       style="fill:#000000;fill-opacity:0;fill-rule:evenodd" />
    <path
       d="m 231.85957,302.45407 v 14.33072"
       id="path257"
       inkscape:connector-curvature="0"
       style="fill-rule:evenodd;stroke:#000000;stroke-width:1;stroke-linecap:butt;stroke-linejoin:round" />
    <path
       d="m 264.98557,302.45407 v 14.33072"
       id="path259"
       inkscape:connector-curvature="0"
       style="fill:#000000;fill-opacity:0;fill-rule:evenodd" />
    <path
       d="m 264.98557,302.45407 v 14.33072"
       id="path261"
       inkscape:connector-curvature="0"
       style="fill-rule:evenodd;stroke:#000000;stroke-width:1;stroke-linecap:butt;stroke-linejoin:round" />
    <path
       d="m 272.19815,302.45407 v 14.33072"
       id="path263"
       inkscape:connector-curvature="0"
       style="fill:#000000;fill-opacity:0;fill-rule:evenodd" />
    <path
       d="m 272.19815,302.45407 v 14.33072"
       id="path265"
       inkscape:connector-curvature="0"
       style="fill-rule:evenodd;stroke:#000000;stroke-width:1;stroke-linecap:butt;stroke-linejoin:round" />
    <path
       d="m 245.0433,302.45407 v 14.33072"
       id="path267"
       inkscape:connector-curvature="0"
       style="fill:#000000;fill-opacity:0;fill-rule:evenodd" />
    <path
       d="m 245.0433,302.45407 v 14.33072"
       id="path269"
       inkscape:connector-curvature="0"
       style="fill-rule:evenodd;stroke:#000000;stroke-width:1;stroke-linecap:butt;stroke-linejoin:round" />
    <path
       d="m 286.61285,302.45407 v 14.33072"
       id="path271"
       inkscape:connector-curvature="0"
       style="fill:#000000;fill-opacity:0;fill-rule:evenodd" />
    <path
       d="m 286.61285,302.45407 v 14.33072"
       id="path273"
       inkscape:connector-curvature="0"
       style="fill-rule:evenodd;stroke:#000000;stroke-width:1;stroke-linecap:butt;stroke-linejoin:round" />
    <path
       d="m 201.06036,255.14174 h 19.65355"
       id="path275"
       inkscape:connector-curvature="0"
       style="fill:#000000;fill-opacity:0;fill-rule:evenodd" />
    <path
       d="m 201.06036,255.14174 h 16.22647"
       id="path277"
       inkscape:connector-curvature="0"
       style="fill-rule:evenodd;stroke:#434343;stroke-width:1;stroke-linecap:butt;stroke-linejoin:round" />
    <path
       d="m 217.28682,255.14174 -1.12457,1.12459 3.08976,-1.12459 -3.08976,-1.12459 z"
       id="path279"
       inkscape:connector-curvature="0"
       style="fill:#434343;fill-rule:evenodd;stroke:#434343;stroke-width:1;stroke-linecap:butt" />
    <path
       d="m 200.73491,309.61942 h 19.65355"
       id="path281"
       inkscape:connector-curvature="0"
       style="fill:#000000;fill-opacity:0;fill-rule:evenodd" />
    <path
       d="m 200.73491,309.61942 h 16.22646"
       id="path283"
       inkscape:connector-curvature="0"
       style="fill-rule:evenodd;stroke:#434343;stroke-width:1;stroke-linecap:butt;stroke-linejoin:round" />
    <path
       d="m 216.96136,309.61942 -1.12459,1.1246 3.08977,-1.1246 -3.08977,-1.12457 z"
       id="path285"
       inkscape:connector-curvature="0"
       style="fill:#434343;fill-rule:evenodd;stroke:#434343;stroke-width:1;stroke-linecap:butt" />
    <path
       d="m 352.16534,104.65092 v 14.33071"
       id="path287"
       inkscape:connector-curvature="0"
       style="fill:#000000;fill-opacity:0;fill-rule:evenodd" />
    <path
       d="m 352.16534,104.65092 v 14.33071"
       id="path289"
       inkscape:connector-curvature="0"
       style="fill-rule:evenodd;stroke:#000000;stroke-width:1;stroke-linecap:butt;stroke-linejoin:round" />
    <path
       d="m 365.97638,104.65092 v 14.33071"
       id="path291"
       inkscape:connector-curvature="0"
       style="fill:#000000;fill-opacity:0;fill-rule:evenodd" />
    <path
       d="m 365.97638,104.65092 v 14.33071"
       id="path293"
       inkscape:connector-curvature="0"
       style="fill-rule:evenodd;stroke:#000000;stroke-width:1;stroke-linecap:butt;stroke-linejoin:round" />
    <path
       d="m 374.13123,104.65092 v 14.33071"
       id="path295"
       inkscape:connector-curvature="0"
       style="fill:#000000;fill-opacity:0;fill-rule:evenodd" />
    <path
       d="m 374.13123,104.65092 v 14.33071"
       id="path297"
       inkscape:connector-curvature="0"
       style="fill-rule:evenodd;stroke:#000000;stroke-width:1;stroke-linecap:butt;stroke-linejoin:round" />
    <path
       d="m 376.92914,104.65092 v 14.33071"
       id="path299"
       inkscape:connector-curvature="0"
       style="fill:#000000;fill-opacity:0;fill-rule:evenodd" />
    <path
       d="m 376.92914,104.65092 v 14.33071"
       id="path301"
       inkscape:connector-curvature="0"
       style="fill-rule:evenodd;stroke:#000000;stroke-width:1;stroke-linecap:butt;stroke-linejoin:round" />
    <path
       d="m 394.86615,104.65092 v 14.33071"
       id="path303"
       inkscape:connector-curvature="0"
       style="fill:#000000;fill-opacity:0;fill-rule:evenodd" />
    <path
       d="m 394.86615,104.65092 v 14.33071"
       id="path305"
       inkscape:connector-curvature="0"
       style="fill-rule:evenodd;stroke:#000000;stroke-width:1;stroke-linecap:butt;stroke-linejoin:round" />
    <path
       d="m 384.4987,104.65092 v 14.33071"
       id="path307"
       inkscape:connector-curvature="0"
       style="fill:#000000;fill-opacity:0;fill-rule:evenodd" />
    <path
       d="m 384.4987,104.65092 v 14.33071"
       id="path309"
       inkscape:connector-curvature="0"
       style="fill-rule:evenodd;stroke:#000000;stroke-width:1;stroke-linecap:butt;stroke-linejoin:round" />
    <path
       d="m 358.64566,104.65092 v 14.33071"
       id="path311"
       inkscape:connector-curvature="0"
       style="fill:#000000;fill-opacity:0;fill-rule:evenodd" />
    <path
       d="m 358.64566,104.65092 v 14.33071"
       id="path313"
       inkscape:connector-curvature="0"
       style="fill-rule:evenodd;stroke:#000000;stroke-width:1;stroke-linecap:butt;stroke-linejoin:round" />
    <path
       d="m 404.44095,104.65092 v 14.33071"
       id="path315"
       inkscape:connector-curvature="0"
       style="fill:#000000;fill-opacity:0;fill-rule:evenodd" />
    <path
       d="m 404.44095,104.65092 v 14.33071"
       id="path317"
       inkscape:connector-curvature="0"
       style="fill-rule:evenodd;stroke:#000000;stroke-width:1;stroke-linecap:butt;stroke-linejoin:round" />
    <path
       d="m 352.10843,159.1292 v 14.3307"
       id="path319"
       inkscape:connector-curvature="0"
       style="fill:#000000;fill-opacity:0;fill-rule:evenodd" />
    <path
       d="m 352.10843,159.1292 v 14.3307"
       id="path321"
       inkscape:connector-curvature="0"
       style="fill-rule:evenodd;stroke:#000000;stroke-width:1;stroke-linecap:butt;stroke-linejoin:round" />
    <path
       d="m 354.8827,159.1292 v 14.3307"
       id="path323"
       inkscape:connector-curvature="0"
       style="fill:#000000;fill-opacity:0;fill-rule:evenodd" />
    <path
       d="m 354.8827,159.1292 v 14.3307"
       id="path325"
       inkscape:connector-curvature="0"
       style="fill-rule:evenodd;stroke:#000000;stroke-width:1;stroke-linecap:butt;stroke-linejoin:round" />
    <path
       d="m 368.2552,159.1292 v 14.3307"
       id="path327"
       inkscape:connector-curvature="0"
       style="fill:#000000;fill-opacity:0;fill-rule:evenodd" />
    <path
       d="m 368.2552,159.1292 v 14.3307"
       id="path329"
       inkscape:connector-curvature="0"
       style="fill-rule:evenodd;stroke:#000000;stroke-width:1;stroke-linecap:butt;stroke-linejoin:round" />
    <path
       d="m 401.84808,159.1292 v 14.3307"
       id="path331"
       inkscape:connector-curvature="0"
       style="fill:#000000;fill-opacity:0;fill-rule:evenodd" />
    <path
       d="m 401.84808,159.1292 v 14.3307"
       id="path333"
       inkscape:connector-curvature="0"
       style="fill-rule:evenodd;stroke:#000000;stroke-width:1;stroke-linecap:butt;stroke-linejoin:round" />
    <path
       d="m 378.36508,159.1292 v 14.3307"
       id="path335"
       inkscape:connector-curvature="0"
       style="fill:#000000;fill-opacity:0;fill-rule:evenodd" />
    <path
       d="m 378.36508,159.1292 v 14.3307"
       id="path337"
       inkscape:connector-curvature="0"
       style="fill-rule:evenodd;stroke:#000000;stroke-width:1;stroke-linecap:butt;stroke-linejoin:round" />
    <path
       d="m 384.4988,159.1292 v 14.3307"
       id="path339"
       inkscape:connector-curvature="0"
       style="fill:#000000;fill-opacity:0;fill-rule:evenodd" />
    <path
       d="m 384.4988,159.1292 v 14.3307"
       id="path341"
       inkscape:connector-curvature="0"
       style="fill-rule:evenodd;stroke:#000000;stroke-width:1;stroke-linecap:butt;stroke-linejoin:round" />
    <path
       d="m 395.93964,159.1292 v 14.3307"
       id="path343"
       inkscape:connector-curvature="0"
       style="fill:#000000;fill-opacity:0;fill-rule:evenodd" />
    <path
       d="m 395.93964,159.1292 v 14.3307"
       id="path345"
       inkscape:connector-curvature="0"
       style="fill-rule:evenodd;stroke:#000000;stroke-width:1;stroke-linecap:butt;stroke-linejoin:round" />
    <path
       d="m 418.4672,166.29396 v 0 c 0,-6.43607 5.21747,-11.65353 11.65353,-11.65353 v 0 c 3.09073,0 6.05484,1.22776 8.2403,3.41323 2.18548,2.18546 3.41327,5.14959 3.41327,8.2403 v 0 c 0,6.43608 -5.21747,11.65355 -11.65357,11.65355 v 0 c -6.43606,0 -11.65353,-5.21747 -11.65353,-11.65355 z"
       id="path347"
       inkscape:connector-curvature="0"
       style="fill:#eeeeee;fill-rule:evenodd" />
    <path
       d="m 418.4672,166.29396 v 0 c 0,-6.43607 5.21747,-11.65353 11.65353,-11.65353 v 0 c 3.09073,0 6.05484,1.22776 8.2403,3.41323 2.18548,2.18546 3.41327,5.14959 3.41327,8.2403 v 0 c 0,6.43608 -5.21747,11.65355 -11.65357,11.65355 v 0 c -6.43606,0 -11.65353,-5.21747 -11.65353,-11.65355 z"
       id="path349"
       inkscape:connector-curvature="0"
       style="fill-rule:evenodd;stroke:#45818e;stroke-width:2;stroke-linecap:butt;stroke-linejoin:round" />
    <path
       d="m 418.33334,111.81628 v 0 c 0,-6.43608 5.21747,-11.65355 11.65353,-11.65355 v 0 c 3.0907,0 6.05484,1.22778 8.2403,3.41325 2.18545,2.18546 3.41324,5.14959 3.41324,8.2403 v 0 c 0,6.43607 -5.21747,11.65354 -11.65354,11.65354 v 0 c -6.43606,0 -11.65353,-5.21747 -11.65353,-11.65354 z"
       id="path351"
       inkscape:connector-curvature="0"
       style="fill:#eeeeee;fill-rule:evenodd" />
    <path
       d="m 418.33334,111.81628 v 0 c 0,-6.43608 5.21747,-11.65355 11.65353,-11.65355 v 0 c 3.0907,0 6.05484,1.22778 8.2403,3.41325 2.18545,2.18546 3.41324,5.14959 3.41324,8.2403 v 0 c 0,6.43607 -5.21747,11.65354 -11.65354,11.65354 v 0 c -6.43606,0 -11.65353,-5.21747 -11.65353,-11.65354 z"
       id="path353"
       inkscape:connector-curvature="0"
       style="fill-rule:evenodd;stroke:#45818e;stroke-width:2;stroke-linecap:butt;stroke-linejoin:round" />
    <path
       d="m 429.98688,123.46982 0.12598,31.18111"
       id="path355"
       inkscape:connector-curvature="0"
       style="fill:#000000;fill-opacity:0;fill-rule:evenodd" />
    <path
       d="m 429.98688,123.46982 0.12598,31.18111"
       id="path357"
       inkscape:connector-curvature="0"
       style="fill-rule:evenodd;stroke:#ea7e3a;stroke-width:2;stroke-linecap:butt;stroke-linejoin:round" />
    <path
       d="m 361.0735,104.65092 v 14.33071"
       id="path359"
       inkscape:connector-curvature="0"
       style="fill:#000000;fill-opacity:0;fill-rule:evenodd" />
    <path
       d="m 361.0735,104.65092 v 14.33071"
       id="path361"
       inkscape:connector-curvature="0"
       style="fill-rule:evenodd;stroke:#000000;stroke-width:1;stroke-linecap:butt;stroke-linejoin:round" />
    <path
       d="m 404.44095,159.1292 v 14.3307"
       id="path363"
       inkscape:connector-curvature="0"
       style="fill:#000000;fill-opacity:0;fill-rule:evenodd" />
    <path
       d="m 404.44095,159.1292 v 14.3307"
       id="path365"
       inkscape:connector-curvature="0"
       style="fill-rule:evenodd;stroke:#000000;stroke-width:1;stroke-linecap:butt;stroke-linejoin:round" />
    <path
       d="m 373.41232,159.1292 v 14.3307"
       id="path367"
       inkscape:connector-curvature="0"
       style="fill:#000000;fill-opacity:0;fill-rule:evenodd" />
    <path
       d="m 373.41232,159.1292 v 14.3307"
       id="path369"
       inkscape:connector-curvature="0"
       style="fill-rule:evenodd;stroke:#000000;stroke-width:1;stroke-linecap:butt;stroke-linejoin:round" />
    <path
       d="m 449.36484,111.81628 h 19.65353"
       id="path371"
       inkscape:connector-curvature="0"
       style="fill:#000000;fill-opacity:0;fill-rule:evenodd" />
    <path
       d="m 449.36484,111.81628 h 16.22644"
       id="path373"
       inkscape:connector-curvature="0"
       style="fill-rule:evenodd;stroke:#434343;stroke-width:1;stroke-linecap:butt;stroke-linejoin:round" />
    <path
       d="m 465.59128,111.81628 -1.12457,1.12458 3.08975,-1.12458 -3.08975,-1.12459 z"
       id="path375"
       inkscape:connector-curvature="0"
       style="fill:#434343;fill-rule:evenodd;stroke:#434343;stroke-width:1;stroke-linecap:butt" />
    <path
       d="M 449.03937,166.29396 H 468.6929"
       id="path377"
       inkscape:connector-curvature="0"
       style="fill:#000000;fill-opacity:0;fill-rule:evenodd" />
    <path
       d="m 449.03937,166.29396 h 16.22647"
       id="path379"
       inkscape:connector-curvature="0"
       style="fill-rule:evenodd;stroke:#434343;stroke-width:1;stroke-linecap:butt;stroke-linejoin:round" />
    <path
       d="m 465.26584,166.29396 -1.1246,1.12459 3.08978,-1.12459 -3.08978,-1.12459 z"
       id="path381"
       inkscape:connector-curvature="0"
       style="fill:#434343;fill-rule:evenodd;stroke:#434343;stroke-width:1;stroke-linecap:butt" />
    <path
       d="m 480.0971,104.64567 v 14.33071"
       id="path383"
       inkscape:connector-curvature="0"
       style="fill:#000000;fill-opacity:0;fill-rule:evenodd" />
    <path
       d="m 480.0971,104.64567 v 14.33071"
       id="path385"
       inkscape:connector-curvature="0"
       style="fill-rule:evenodd;stroke:#000000;stroke-width:1;stroke-linecap:butt;stroke-linejoin:round" />
    <path
       d="m 507.00262,104.64567 v 14.33071"
       id="path387"
       inkscape:connector-curvature="0"
       style="fill:#000000;fill-opacity:0;fill-rule:evenodd" />
    <path
       d="m 507.00262,104.64567 v 14.33071"
       id="path389"
       inkscape:connector-curvature="0"
       style="fill-rule:evenodd;stroke:#000000;stroke-width:1;stroke-linecap:butt;stroke-linejoin:round" />
    <path
       d="m 509.64304,104.64567 v 14.33071"
       id="path391"
       inkscape:connector-curvature="0"
       style="fill:#000000;fill-opacity:0;fill-rule:evenodd" />
    <path
       d="m 509.64304,104.64567 v 14.33071"
       id="path393"
       inkscape:connector-curvature="0"
       style="fill-rule:evenodd;stroke:#000000;stroke-width:1;stroke-linecap:butt;stroke-linejoin:round" />
    <path
       d="m 490.45932,104.65092 v 14.33071"
       id="path395"
       inkscape:connector-curvature="0"
       style="fill:#000000;fill-opacity:0;fill-rule:evenodd" />
    <path
       d="m 490.45932,104.65092 v 14.33071"
       id="path397"
       inkscape:connector-curvature="0"
       style="fill-rule:evenodd;stroke:#000000;stroke-width:1;stroke-linecap:butt;stroke-linejoin:round" />
    <path
       d="m 518.62994,104.65092 v 14.33071"
       id="path399"
       inkscape:connector-curvature="0"
       style="fill:#000000;fill-opacity:0;fill-rule:evenodd" />
    <path
       d="m 518.62994,104.65092 v 14.33071"
       id="path401"
       inkscape:connector-curvature="0"
       style="fill-rule:evenodd;stroke:#000000;stroke-width:1;stroke-linecap:butt;stroke-linejoin:round" />
    <path
       d="m 483.61548,159.12335 v 14.33072"
       id="path403"
       inkscape:connector-curvature="0"
       style="fill:#000000;fill-opacity:0;fill-rule:evenodd" />
    <path
       d="m 483.61548,159.12335 v 14.33072"
       id="path405"
       inkscape:connector-curvature="0"
       style="fill-rule:evenodd;stroke:#000000;stroke-width:1;stroke-linecap:butt;stroke-linejoin:round" />
    <path
       d="m 508.13254,159.12335 v 14.33072"
       id="path407"
       inkscape:connector-curvature="0"
       style="fill:#000000;fill-opacity:0;fill-rule:evenodd" />
    <path
       d="m 508.13254,159.12335 v 14.33072"
       id="path409"
       inkscape:connector-curvature="0"
       style="fill-rule:evenodd;stroke:#000000;stroke-width:1;stroke-linecap:butt;stroke-linejoin:round" />
    <path
       d="m 498.5315,159.12335 v 14.33072"
       id="path411"
       inkscape:connector-curvature="0"
       style="fill:#000000;fill-opacity:0;fill-rule:evenodd" />
    <path
       d="m 498.5315,159.12335 v 14.33072"
       id="path413"
       inkscape:connector-curvature="0"
       style="fill-rule:evenodd;stroke:#000000;stroke-width:1;stroke-linecap:butt;stroke-linejoin:round" />
    <path
       d="m 493.37402,159.12335 v 14.33072"
       id="path415"
       inkscape:connector-curvature="0"
       style="fill:#000000;fill-opacity:0;fill-rule:evenodd" />
    <path
       d="m 493.37402,159.12335 v 14.33072"
       id="path417"
       inkscape:connector-curvature="0"
       style="fill-rule:evenodd;stroke:#000000;stroke-width:1;stroke-linecap:butt;stroke-linejoin:round" />
    <path
       d="m 515.2507,159.12335 v 14.33072"
       id="path419"
       inkscape:connector-curvature="0"
       style="fill:#000000;fill-opacity:0;fill-rule:evenodd" />
    <path
       d="m 515.2507,159.12335 v 14.33072"
       id="path421"
       inkscape:connector-curvature="0"
       style="fill-rule:evenodd;stroke:#000000;stroke-width:1;stroke-linecap:butt;stroke-linejoin:round" />
    <path
       d="m 352.1076,247.98163 v 14.33072"
       id="path423"
       inkscape:connector-curvature="0"
       style="fill:#000000;fill-opacity:0;fill-rule:evenodd" />
    <path
       d="m 352.1076,247.98163 v 14.33072"
       id="path425"
       inkscape:connector-curvature="0"
       style="fill-rule:evenodd;stroke:#000000;stroke-width:1;stroke-linecap:butt;stroke-linejoin:round" />
    <path
       d="m 365.91864,247.98163 v 14.33072"
       id="path427"
       inkscape:connector-curvature="0"
       style="fill:#000000;fill-opacity:0;fill-rule:evenodd" />
    <path
       d="m 365.91864,247.98163 v 14.33072"
       id="path429"
       inkscape:connector-curvature="0"
       style="fill-rule:evenodd;stroke:#000000;stroke-width:1;stroke-linecap:butt;stroke-linejoin:round" />
    <path
       d="m 371.34122,247.98163 v 14.33072"
       id="path431"
       inkscape:connector-curvature="0"
       style="fill:#000000;fill-opacity:0;fill-rule:evenodd" />
    <path
       d="m 371.34122,247.98163 v 14.33072"
       id="path433"
       inkscape:connector-curvature="0"
       style="fill-rule:evenodd;stroke:#000000;stroke-width:1;stroke-linecap:butt;stroke-linejoin:round" />
    <path
       d="m 384.44095,247.98163 v 14.33072"
       id="path435"
       inkscape:connector-curvature="0"
       style="fill:#000000;fill-opacity:0;fill-rule:evenodd" />
    <path
       d="m 384.44095,247.98163 v 14.33072"
       id="path437"
       inkscape:connector-curvature="0"
       style="fill-rule:evenodd;stroke:#000000;stroke-width:1;stroke-linecap:butt;stroke-linejoin:round" />
    <path
       d="m 404.3832,247.98163 v 14.33072"
       id="path439"
       inkscape:connector-curvature="0"
       style="fill:#000000;fill-opacity:0;fill-rule:evenodd" />
    <path
       d="m 404.3832,247.98163 v 14.33072"
       id="path441"
       inkscape:connector-curvature="0"
       style="fill-rule:evenodd;stroke:#000000;stroke-width:1;stroke-linecap:butt;stroke-linejoin:round" />
    <path
       d="m 354.82495,302.4599 v 14.33072"
       id="path443"
       inkscape:connector-curvature="0"
       style="fill:#000000;fill-opacity:0;fill-rule:evenodd" />
    <path
       d="m 354.82495,302.4599 v 14.33072"
       id="path445"
       inkscape:connector-curvature="0"
       style="fill-rule:evenodd;stroke:#000000;stroke-width:1;stroke-linecap:butt;stroke-linejoin:round" />
    <path
       d="m 373.35492,302.4599 v 14.33072"
       id="path447"
       inkscape:connector-curvature="0"
       style="fill:#000000;fill-opacity:0;fill-rule:evenodd" />
    <path
       d="m 373.35492,302.4599 v 14.33072"
       id="path449"
       inkscape:connector-curvature="0"
       style="fill-rule:evenodd;stroke:#000000;stroke-width:1;stroke-linecap:butt;stroke-linejoin:round" />
    <path
       d="m 401.79034,302.4599 v 14.33072"
       id="path451"
       inkscape:connector-curvature="0"
       style="fill:#000000;fill-opacity:0;fill-rule:evenodd" />
    <path
       d="m 401.79034,302.4599 v 14.33072"
       id="path453"
       inkscape:connector-curvature="0"
       style="fill-rule:evenodd;stroke:#000000;stroke-width:1;stroke-linecap:butt;stroke-linejoin:round" />
    <path
       d="m 384.44107,302.4599 v 14.33072"
       id="path455"
       inkscape:connector-curvature="0"
       style="fill:#000000;fill-opacity:0;fill-rule:evenodd" />
    <path
       d="m 384.44107,302.4599 v 14.33072"
       id="path457"
       inkscape:connector-curvature="0"
       style="fill-rule:evenodd;stroke:#000000;stroke-width:1;stroke-linecap:butt;stroke-linejoin:round" />
    <path
       d="m 418.40945,309.62466 v 0 c 0,-6.43607 5.21747,-11.65353 11.65353,-11.65353 v 0 c 3.09073,0 6.05484,1.22778 8.2403,3.41323 2.18548,2.18546 3.41324,5.1496 3.41324,8.2403 v 0 c 0,6.4361 -5.21747,11.65356 -11.65354,11.65356 v 0 c -6.43606,0 -11.65353,-5.21746 -11.65353,-11.65356 z"
       id="path459"
       inkscape:connector-curvature="0"
       style="fill:#eeeeee;fill-rule:evenodd" />
    <path
       d="m 418.40945,309.62466 v 0 c 0,-6.43607 5.21747,-11.65353 11.65353,-11.65353 v 0 c 3.09073,0 6.05484,1.22778 8.2403,3.41323 2.18548,2.18546 3.41324,5.1496 3.41324,8.2403 v 0 c 0,6.4361 -5.21747,11.65356 -11.65354,11.65356 v 0 c -6.43606,0 -11.65353,-5.21746 -11.65353,-11.65356 z"
       id="path461"
       inkscape:connector-curvature="0"
       style="fill-rule:evenodd;stroke:#45818e;stroke-width:2;stroke-linecap:butt;stroke-linejoin:round" />
    <path
       d="m 418.2756,255.14699 v 0 c 0,-6.43608 5.21747,-11.65355 11.65353,-11.65355 v 0 c 3.0907,0 6.05484,1.22778 8.2403,3.41324 2.18545,2.18547 3.41324,5.1496 3.41324,8.24031 v 0 c 0,6.43608 -5.21747,11.65355 -11.65354,11.65355 v 0 c -6.43606,0 -11.65353,-5.21747 -11.65353,-11.65355 z"
       id="path463"
       inkscape:connector-curvature="0"
       style="fill:#eeeeee;fill-rule:evenodd" />
    <path
       d="m 418.2756,255.14699 v 0 c 0,-6.43608 5.21747,-11.65355 11.65353,-11.65355 v 0 c 3.0907,0 6.05484,1.22778 8.2403,3.41324 2.18545,2.18547 3.41324,5.1496 3.41324,8.24031 v 0 c 0,6.43608 -5.21747,11.65355 -11.65354,11.65355 v 0 c -6.43606,0 -11.65353,-5.21747 -11.65353,-11.65355 z"
       id="path465"
       inkscape:connector-curvature="0"
       style="fill-rule:evenodd;stroke:#45818e;stroke-width:2;stroke-linecap:butt;stroke-linejoin:round" />
    <path
       d="m 429.92914,266.80054 0.12598,31.18109"
       id="path467"
       inkscape:connector-curvature="0"
       style="fill:#000000;fill-opacity:0;fill-rule:evenodd" />
    <path
       d="m 429.92914,266.80054 0.12598,31.18109"
       id="path469"
       inkscape:connector-curvature="0"
       style="fill-rule:evenodd;stroke:#ea7e3a;stroke-width:2;stroke-linecap:butt;stroke-linejoin:round" />
    <path
       d="M 505.4042,247.97638 V 262.3071"
       id="path471"
       inkscape:connector-curvature="0"
       style="fill:#000000;fill-opacity:0;fill-rule:evenodd" />
    <path
       d="M 505.4042,247.97638 V 262.3071"
       id="path473"
       inkscape:connector-curvature="0"
       style="fill-rule:evenodd;stroke:#000000;stroke-width:1;stroke-linecap:butt;stroke-linejoin:round" />
    <path
       d="m 520.44617,247.98163 v 14.33072"
       id="path475"
       inkscape:connector-curvature="0"
       style="fill:#000000;fill-opacity:0;fill-rule:evenodd" />
    <path
       d="m 520.44617,247.98163 v 14.33072"
       id="path477"
       inkscape:connector-curvature="0"
       style="fill-rule:evenodd;stroke:#000000;stroke-width:1;stroke-linecap:butt;stroke-linejoin:round" />
    <path
       d="m 480.0971,247.98163 v 14.33072"
       id="path479"
       inkscape:connector-curvature="0"
       style="fill:#000000;fill-opacity:0;fill-rule:evenodd" />
    <path
       d="m 480.0971,247.98163 v 14.33072"
       id="path481"
       inkscape:connector-curvature="0"
       style="fill-rule:evenodd;stroke:#000000;stroke-width:1;stroke-linecap:butt;stroke-linejoin:round" />
    <path
       d="m 398.75067,302.4599 v 14.33072"
       id="path483"
       inkscape:connector-curvature="0"
       style="fill:#000000;fill-opacity:0;fill-rule:evenodd" />
    <path
       d="m 398.75067,302.4599 v 14.33072"
       id="path485"
       inkscape:connector-curvature="0"
       style="fill-rule:evenodd;stroke:#000000;stroke-width:1;stroke-linecap:butt;stroke-linejoin:round" />
    <path
       d="m 492.97507,302.4567 v 14.33072"
       id="path487"
       inkscape:connector-curvature="0"
       style="fill:#000000;fill-opacity:0;fill-rule:evenodd" />
    <path
       d="m 492.97507,302.4567 v 14.33072"
       id="path489"
       inkscape:connector-curvature="0"
       style="fill-rule:evenodd;stroke:#000000;stroke-width:1;stroke-linecap:butt;stroke-linejoin:round" />
    <path
       d="m 511.563,302.45145 v 14.33072"
       id="path491"
       inkscape:connector-curvature="0"
       style="fill:#000000;fill-opacity:0;fill-rule:evenodd" />
    <path
       d="m 511.563,302.45145 v 14.33072"
       id="path493"
       inkscape:connector-curvature="0"
       style="fill-rule:evenodd;stroke:#000000;stroke-width:1;stroke-linecap:butt;stroke-linejoin:round" />
    <path
       d="m 486.77036,302.4567 v 14.33072"
       id="path495"
       inkscape:connector-curvature="0"
       style="fill:#000000;fill-opacity:0;fill-rule:evenodd" />
    <path
       d="m 486.77036,302.4567 v 14.33072"
       id="path497"
       inkscape:connector-curvature="0"
       style="fill-rule:evenodd;stroke:#000000;stroke-width:1;stroke-linecap:butt;stroke-linejoin:round" />
    <path
       d="m 449.3071,255.14699 h 19.65353"
       id="path499"
       inkscape:connector-curvature="0"
       style="fill:#000000;fill-opacity:0;fill-rule:evenodd" />
    <path
       d="m 449.3071,255.14699 h 16.22644"
       id="path501"
       inkscape:connector-curvature="0"
       style="fill-rule:evenodd;stroke:#434343;stroke-width:1;stroke-linecap:butt;stroke-linejoin:round" />
    <path
       d="m 465.53354,255.14699 -1.12457,1.12459 3.08975,-1.12459 -3.08975,-1.12459 z"
       id="path503"
       inkscape:connector-curvature="0"
       style="fill:#434343;fill-rule:evenodd;stroke:#434343;stroke-width:1;stroke-linecap:butt" />
    <path
       d="m 448.98163,309.62466 h 19.65353"
       id="path505"
       inkscape:connector-curvature="0"
       style="fill:#000000;fill-opacity:0;fill-rule:evenodd" />
    <path
       d="M 448.98163,309.62466 H 465.2081"
       id="path507"
       inkscape:connector-curvature="0"
       style="fill-rule:evenodd;stroke:#434343;stroke-width:1;stroke-linecap:butt;stroke-linejoin:round" />
    <path
       d="m 465.20807,309.62466 -1.12457,1.1246 3.08978,-1.1246 -3.08978,-1.12457 z"
       id="path509"
       inkscape:connector-curvature="0"
       style="fill:#434343;fill-rule:evenodd;stroke:#434343;stroke-width:1;stroke-linecap:butt" />
    <path
       d="m 87.7874,49.076115 h 32.0315 V 94.335961 H 87.7874 Z"
       id="path511"
       inkscape:connector-curvature="0"
       style="fill:#000000;fill-opacity:0;fill-rule:evenodd" />
    <path
       d="m 96.9124,78.556114 5.64063,-14.625 h 3.92187 l 5.625,14.625 h -3.4375 l -1.04687,-2.875 h -6.375 l -1.04688,2.875 z m 5.25,-5.4375 h 4.54688 l -1.3125,-3.609375 q -0.0781,-0.234375 -0.20313,-0.5625 -0.10937,-0.328125 -0.23437,-0.734375 -0.125,-0.40625 -0.25,-0.796875 -0.10938,-0.390625 -0.21875,-0.71875 h -0.125 q -0.10938,0.40625 -0.28125,0.953125 -0.17188,0.546875 -0.34375,1.046875 -0.17188,0.5 -0.28125,0.8125 z"
       id="path513"
       inkscape:connector-curvature="0"
       style="fill:#000000;fill-rule:nonzero" />
    <path
       d="m 336.6378,49.076115 h 32.03149 V 94.335961 H 336.6378 Z"
       id="path515"
       inkscape:connector-curvature="0"
       style="fill:#000000;fill-opacity:0;fill-rule:evenodd" />
    <path
       d="m 347.2628,78.556114 v -14.625 h 8.35938 q 1.15625,0 2.07812,0.453125 0.92188,0.4375 1.45313,1.25 0.54687,0.8125 0.54687,1.890625 0,0.875 -0.32812,1.5625 -0.3125,0.6875 -0.85938,1.140625 -0.54687,0.4375 -1.23437,0.65625 v 0.07813 q 0.8125,0.171875 1.4375,0.640625 0.64062,0.46875 1,1.203125 0.375,0.734375 0.375,1.734375 0,1.328125 -0.60938,2.234375 -0.59375,0.890625 -1.60937,1.34375 -1,0.4375 -2.23438,0.4375 z m 3.17188,-2.609375 h 4.59375 q 0.78125,0 1.28125,-0.4375 0.5,-0.453125 0.5,-1.390625 0,-0.546875 -0.21875,-0.953125 -0.20313,-0.40625 -0.64063,-0.625 -0.42187,-0.234375 -1.07812,-0.234375 h -4.4375 z m 0,-6.109375 h 4.21875 q 0.57812,0 0.96875,-0.21875 0.40625,-0.234375 0.60937,-0.609375 0.20313,-0.375 0.20313,-0.859375 0,-0.828125 -0.46875,-1.25 -0.45313,-0.4375 -1.20313,-0.4375 h -4.32812 z"
       id="path517"
       inkscape:connector-curvature="0"
       style="fill:#000000;fill-rule:nonzero" />
    <path
       d="m 87.7874,192.74016 h 32.0315 V 238 H 87.7874 Z"
       id="path519"
       inkscape:connector-curvature="0"
       style="fill:#000000;fill-opacity:0;fill-rule:evenodd" />
    <path
       d="m 104.95927,222.47015 q -2.28125,0 -3.90625,-0.79688 -1.624996,-0.79687 -2.468746,-2.48437 -0.84375,-1.6875 -0.84375,-4.28125 0,-3.84375 1.890625,-5.70313 1.890621,-1.875 5.328121,-1.875 1.875,0 3.35938,0.64063 1.5,0.64062 2.35937,1.92187 0.875,1.28125 0.875,3.21875 h -3.20312 q 0,-1.01562 -0.42188,-1.71875 -0.40625,-0.70312 -1.17187,-1.07812 -0.75,-0.375 -1.75,-0.375 -1.375,0 -2.26563,0.53125 -0.875,0.53125 -1.29687,1.5625 -0.40625,1.03125 -0.40625,2.53125 v 0.65625 q 0,1.54687 0.42187,2.57812 0.42188,1.03125 1.28125,1.5625 0.875,0.51563 2.23438,0.51563 1.0625,0 1.84375,-0.35938 0.79687,-0.375 1.21875,-1.07812 0.4375,-0.70313 0.4375,-1.71875 h 3.07812 q 0,1.9375 -0.84375,3.21875 -0.84375,1.28125 -2.34375,1.90625 -1.48437,0.625 -3.40625,0.625 z"
       id="path521"
       inkscape:connector-curvature="0"
       style="fill:#000000;fill-rule:nonzero" />
    <path
       d="m 336.6378,192.74016 h 32.03149 V 238 H 336.6378 Z"
       id="path523"
       inkscape:connector-curvature="0"
       style="fill:#000000;fill-opacity:0;fill-rule:evenodd" />
    <path
       d="m 347.2628,222.22015 v -14.625 h 5.96875 q 2.28125,0 3.875,0.79687 1.60938,0.78125 2.46875,2.39063 0.85938,1.60937 0.85938,4.125 0,2.5 -0.85938,4.125 -0.85937,1.60937 -2.46875,2.40625 -1.59375,0.78125 -3.875,0.78125 z m 3.17188,-2.625 h 2.78125 q 0.95312,0 1.70312,-0.26563 0.75,-0.28125 1.23438,-0.82812 0.48437,-0.54688 0.73437,-1.35938 0.26563,-0.82812 0.26563,-1.92187 v -0.64063 q 0,-1.07812 -0.26563,-1.89062 -0.25,-0.82813 -0.73437,-1.375 -0.48438,-0.54688 -1.23438,-0.82813 -0.75,-0.29687 -1.70312,-0.29687 h -2.78125 z"
       id="path525"
       inkscape:connector-curvature="0"
       style="fill:#000000;fill-rule:nonzero" />
    <path
       d="M 92.07612,30.650919 H 297.58793 V 74.272966 H 92.07612 Z"
       id="path527"
       inkscape:connector-curvature="0"
       style="fill:#000000;fill-opacity:0;fill-rule:evenodd" />
    <path
       d="m 136.45311,58.850918 v -14.3125 h 9.65625 v 1.6875 h -7.76563 v 4.4375 h 6.71875 v 1.6875 h -6.71875 v 6.5 z m 18.66992,-1.28125 q -0.98437,0.828125 -1.89062,1.171875 -0.90625,0.34375 -1.9375,0.34375 -1.70313,0 -2.625,-0.828125 -0.92188,-0.84375 -0.92188,-2.140625 0,-0.765625 0.34375,-1.390625 0.35938,-0.625 0.92188,-1 0.5625,-0.390625 1.26562,-0.59375 0.51563,-0.125 1.5625,-0.265625 2.125,-0.25 3.125,-0.59375 0.0156,-0.359375 0.0156,-0.46875 0,-1.0625 -0.5,-1.515625 -0.67188,-0.59375 -2,-0.59375 -1.25,0 -1.84375,0.4375 -0.57813,0.4375 -0.85938,1.546875 l -1.71875,-0.234375 q 0.23438,-1.109375 0.76563,-1.78125 0.53125,-0.6875 1.54687,-1.046875 1.01563,-0.375 2.35938,-0.375 1.32812,0 2.15625,0.3125 0.82812,0.3125 1.21875,0.796875 0.39062,0.46875 0.54687,1.1875 0.0937,0.453125 0.0937,1.625 v 2.34375 q 0,2.453125 0.10938,3.109375 0.10937,0.640625 0.45312,1.234375 h -1.84375 q -0.26562,-0.546875 -0.34375,-1.28125 z m -0.15625,-3.921875 q -0.95312,0.390625 -2.875,0.65625 -1.07812,0.15625 -1.53125,0.359375 -0.4375,0.1875 -0.6875,0.5625 -0.25,0.375 -0.25,0.84375 0,0.703125 0.53125,1.171875 0.53125,0.46875 1.5625,0.46875 1.01563,0 1.79688,-0.4375 0.79687,-0.453125 1.17187,-1.21875 0.28125,-0.609375 0.28125,-1.765625 z m 4.49805,5.203125 v -10.375 h 1.57812 v 1.453125 q 0.48438,-0.75 1.29688,-1.21875 0.8125,-0.46875 1.84375,-0.46875 1.15625,0 1.89062,0.484375 0.73438,0.46875 1.04688,1.328125 1.23437,-1.8125 3.20312,-1.8125 1.54688,0 2.375,0.859375 0.82813,0.859375 0.82813,2.625 v 7.125 h -1.75 v -6.53125 q 0,-1.0625 -0.17188,-1.515625 -0.17187,-0.46875 -0.625,-0.75 -0.4375,-0.28125 -1.04687,-0.28125 -1.09375,0 -1.82813,0.734375 -0.71875,0.71875 -0.71875,2.3125 v 6.03125 h -1.75 v -6.734375 q 0,-1.171875 -0.4375,-1.75 -0.42187,-0.59375 -1.40625,-0.59375 -0.73437,0 -1.375,0.390625 -0.625,0.390625 -0.90625,1.140625 -0.28125,0.75 -0.28125,2.171875 v 5.375 z m 16.67578,-12.296875 v -2.015625 h 1.76562 v 2.015625 z m 0,12.296875 v -10.375 h 1.76562 v 10.375 z m 4.39648,0 v -14.3125 h 1.75 v 14.3125 z m 4.49024,-12.296875 v -2.015625 h 1.76562 v 2.015625 z m 0,12.296875 v -10.375 h 1.76562 v 10.375 z m 11.20898,-1.28125 q -0.98437,0.828125 -1.89062,1.171875 -0.90625,0.34375 -1.9375,0.34375 -1.70313,0 -2.625,-0.828125 -0.92188,-0.84375 -0.92188,-2.140625 0,-0.765625 0.34375,-1.390625 0.35938,-0.625 0.92188,-1 0.5625,-0.390625 1.26562,-0.59375 0.51563,-0.125 1.5625,-0.265625 2.125,-0.25 3.125,-0.59375 0.0156,-0.359375 0.0156,-0.46875 0,-1.0625 -0.5,-1.515625 -0.67188,-0.59375 -2,-0.59375 -1.25,0 -1.84375,0.4375 -0.57813,0.4375 -0.85938,1.546875 l -1.71875,-0.234375 q 0.23438,-1.109375 0.76563,-1.78125 0.53125,-0.6875 1.54687,-1.046875 1.01563,-0.375 2.35938,-0.375 1.32812,0 2.15625,0.3125 0.82812,0.3125 1.21875,0.796875 0.39062,0.46875 0.54687,1.1875 0.0937,0.453125 0.0937,1.625 v 2.34375 q 0,2.453125 0.10938,3.109375 0.10937,0.640625 0.45312,1.234375 h -1.84375 q -0.26562,-0.546875 -0.34375,-1.28125 z m -0.15625,-3.921875 q -0.95312,0.390625 -2.875,0.65625 -1.07812,0.15625 -1.53125,0.359375 -0.4375,0.1875 -0.6875,0.5625 -0.25,0.375 -0.25,0.84375 0,0.703125 0.53125,1.171875 0.53125,0.46875 1.5625,0.46875 1.01563,0 1.79688,-0.4375 0.79687,-0.453125 1.17187,-1.21875 0.28125,-0.609375 0.28125,-1.765625 z m 4.48242,5.203125 v -10.375 h 1.57813 v 1.578125 q 0.60937,-1.109375 1.125,-1.453125 0.51562,-0.359375 1.125,-0.359375 0.89062,0 1.8125,0.5625 l -0.60938,1.640625 q -0.64062,-0.390625 -1.28125,-0.390625 -0.57812,0 -1.04687,0.359375 -0.45313,0.34375 -0.65625,0.953125 -0.28125,0.9375 -0.28125,2.046875 v 5.4375 z m 12.24805,-12.296875 v -2.015625 h 1.76563 v 2.015625 z m 0,12.296875 v -10.375 h 1.76563 v 10.375 z m 4.42774,0 v -10.375 h 1.59375 v 1.484375 q 1.14062,-1.71875 3.29687,-1.71875 0.9375,0 1.71875,0.34375 0.79688,0.328125 1.1875,0.875 0.39063,0.546875 0.54688,1.296875 0.0937,0.5 0.0937,1.71875 v 6.375 h -1.76563 v -6.3125 q 0,-1.078125 -0.20312,-1.609375 -0.20313,-0.53125 -0.73438,-0.84375 -0.51562,-0.3125 -1.21875,-0.3125 -1.125,0 -1.9375,0.71875 -0.8125,0.703125 -0.8125,2.6875 v 5.671875 z m 11.12304,3.968746 V 48.475918 h 1.60938 v 1.34375 q 0.5625,-0.78125 1.26562,-1.171875 0.71875,-0.40625 1.73438,-0.40625 1.32812,0 2.34375,0.6875 1.01562,0.6875 1.53125,1.9375 0.53125,1.234375 0.53125,2.71875 0,1.59375 -0.57813,2.875 -0.5625,1.265625 -1.65625,1.953125 -1.09375,0.671875 -2.29687,0.671875 -0.875,0 -1.57813,-0.375 -0.6875,-0.375 -1.14062,-0.9375 v 5.046871 z m 1.59375,-9.093746 q 0,2 0.8125,2.953125 0.8125,0.953125 1.96875,0.953125 1.17188,0 2,-0.984375 0.84375,-0.984375 0.84375,-3.078125 0,-1.96875 -0.82812,-2.953125 -0.8125,-1 -1.9375,-1 -1.125,0 -2,1.0625 -0.85938,1.046875 -0.85938,3.046875 z m 16.32618,5.125 v -1.53125 q -1.20313,1.765625 -3.28125,1.765625 -0.92188,0 -1.71875,-0.34375 -0.79688,-0.359375 -1.1875,-0.890625 -0.375,-0.53125 -0.53125,-1.3125 -0.10938,-0.515625 -0.10938,-1.640625 v -6.421875 h 1.75 v 5.75 q 0,1.375 0.10938,1.859375 0.17187,0.6875 0.70312,1.09375 0.54688,0.390625 1.32813,0.390625 0.79687,0 1.48437,-0.40625 0.70313,-0.40625 0.98438,-1.09375 0.29687,-0.703125 0.29687,-2.03125 v -5.5625 h 1.75 v 10.375 z m 8.16992,-1.578125 0.25,1.5625 q -0.73438,0.15625 -1.32813,0.15625 -0.95312,0 -1.48437,-0.296875 -0.51563,-0.3125 -0.73438,-0.796875 -0.21875,-0.5 -0.21875,-2.078125 v -5.96875 h -1.28125 v -1.375 h 1.28125 v -2.5625 l 1.75,-1.0625 v 3.625 h 1.76563 v 1.375 h -1.76563 v 6.0625 q 0,0.75 0.0937,0.96875 0.0937,0.203125 0.29688,0.34375 0.21875,0.125 0.60937,0.125 0.28125,0 0.76563,-0.07813 z"
       id="path529"
       inkscape:connector-curvature="0"
       style="fill:#000000;fill-rule:nonzero" />
    <path
       d="M 340.95538,30.650919 H 546.46716 V 74.272966 H 340.95538 Z"
       id="path531"
       inkscape:connector-curvature="0"
       style="fill:#000000;fill-opacity:0;fill-rule:evenodd" />
    <path
       d="m 395.21323,58.850918 v -14.3125 h 1.9375 l 7.51562,11.234375 V 44.538418 h 1.8125 v 14.3125 h -1.9375 l -7.51562,-11.25 v 11.25 z m 13.58398,-5.1875 q 0,-2.875 1.59375,-4.265625 1.34375,-1.15625 3.26563,-1.15625 2.14062,0 3.48437,1.40625 1.35938,1.40625 1.35938,3.875 0,2 -0.59375,3.15625 -0.59375,1.140625 -1.75,1.78125 -1.14063,0.625 -2.5,0.625 -2.1875,0 -3.53125,-1.390625 -1.32813,-1.40625 -1.32813,-4.03125 z m 1.79688,0 q 0,2 0.85937,2.984375 0.875,0.984375 2.20313,0.984375 1.3125,0 2.17187,-0.984375 0.875,-1 0.875,-3.046875 0,-1.921875 -0.875,-2.90625 -0.875,-1 -2.17187,-1 -1.32813,0 -2.20313,1 -0.85937,0.984375 -0.85937,2.96875 z m 12.85742,5.1875 -3.95312,-10.375 h 1.85937 l 2.23438,6.21875 q 0.35937,1 0.65625,2.078125 0.23437,-0.8125 0.65625,-1.96875 l 2.29687,-6.328125 h 1.8125 l -3.92187,10.375 z m 14.21875,-3.34375 1.8125,0.234375 q -0.42187,1.578125 -1.59375,2.46875 -1.15625,0.875 -2.96875,0.875 -2.26562,0 -3.60937,-1.390625 -1.32813,-1.40625 -1.32813,-3.9375 0,-2.625 1.34375,-4.0625 1.34375,-1.453125 3.5,-1.453125 2.07813,0 3.39063,1.421875 1.32812,1.40625 1.32812,3.984375 0,0.15625 -0.0156,0.46875 h -7.73438 q 0.0937,1.703125 0.96875,2.609375 0.875,0.90625 2.17188,0.90625 0.96875,0 1.64062,-0.5 0.6875,-0.515625 1.09375,-1.625 z m -5.78125,-2.84375 h 5.79688 q -0.10938,-1.296875 -0.65625,-1.953125 -0.84375,-1.015625 -2.1875,-1.015625 -1.20313,0 -2.03125,0.8125 -0.82813,0.796875 -0.92188,2.15625 z m 9.76367,6.1875 v -14.3125 h 1.75 v 14.3125 z m 10.04688,-12.296875 v -2.015625 h 1.76562 v 2.015625 z m 0,12.296875 v -10.375 h 1.76562 v 10.375 z m 4.42773,0 v -10.375 h 1.59375 v 1.484375 q 1.14063,-1.71875 3.29688,-1.71875 0.9375,0 1.71875,0.34375 0.79687,0.328125 1.1875,0.875 0.39062,0.546875 0.54687,1.296875 0.0937,0.5 0.0937,1.71875 v 6.375 h -1.76562 v -6.3125 q 0,-1.078125 -0.20313,-1.609375 -0.20312,-0.53125 -0.73437,-0.84375 -0.51563,-0.3125 -1.21875,-0.3125 -1.125,0 -1.9375,0.71875 -0.8125,0.703125 -0.8125,2.6875 v 5.671875 z m 11.12305,3.968746 V 48.475918 h 1.60937 v 1.34375 q 0.5625,-0.78125 1.26563,-1.171875 0.71875,-0.40625 1.73437,-0.40625 1.32813,0 2.34375,0.6875 1.01563,0.6875 1.53125,1.9375 0.53125,1.234375 0.53125,2.71875 0,1.59375 -0.57812,2.875 -0.5625,1.265625 -1.65625,1.953125 -1.09375,0.671875 -2.29688,0.671875 -0.875,0 -1.57812,-0.375 -0.6875,-0.375 -1.14063,-0.9375 v 5.046871 z m 1.59375,-9.093746 q 0,2 0.8125,2.953125 0.8125,0.953125 1.96875,0.953125 1.17187,0 2,-0.984375 0.84375,-0.984375 0.84375,-3.078125 0,-1.96875 -0.82813,-2.953125 -0.8125,-1 -1.9375,-1 -1.125,0 -2,1.0625 -0.85937,1.046875 -0.85937,3.046875 z m 16.32617,5.125 v -1.53125 q -1.20312,1.765625 -3.28125,1.765625 -0.92187,0 -1.71875,-0.34375 -0.79687,-0.359375 -1.1875,-0.890625 -0.375,-0.53125 -0.53125,-1.3125 -0.10937,-0.515625 -0.10937,-1.640625 v -6.421875 h 1.75 v 5.75 q 0,1.375 0.10937,1.859375 0.17188,0.6875 0.70313,1.09375 0.54687,0.390625 1.32812,0.390625 0.79688,0 1.48438,-0.40625 0.70312,-0.40625 0.98437,-1.09375 0.29688,-0.703125 0.29688,-2.03125 v -5.5625 h 1.75 v 10.375 z m 8.16992,-1.578125 0.25,1.5625 q -0.73437,0.15625 -1.32812,0.15625 -0.95313,0 -1.48438,-0.296875 -0.51562,-0.3125 -0.73437,-0.796875 -0.21875,-0.5 -0.21875,-2.078125 v -5.96875 h -1.28125 v -1.375 h 1.28125 v -2.5625 l 1.75,-1.0625 v 3.625 h 1.76562 v 1.375 h -1.76562 v 6.0625 q 0,0.75 0.0937,0.96875 0.0937,0.203125 0.29687,0.34375 0.21875,0.125 0.60938,0.125 0.28125,0 0.76562,-0.07813 z"
       id="path533"
       inkscape:connector-curvature="0"
       style="fill:#000000;fill-rule:nonzero" />
    <path
       d="M 27.790026,229.48294 V 48.09711 h 43.622047 v 181.38583 z"
       id="path535"
       inkscape:connector-curvature="0"
       style="fill:#000000;fill-opacity:0;fill-rule:evenodd" />
    <path
       d="m 51.396275,192.92284 -0.15625,-1.78125 q 1.0625,-0.125 1.75,-0.57813 0.6875,-0.46875 1.125,-1.4375 0.421875,-0.98437 0.421875,-2.21875 0,-1.07812 -0.3125,-1.90625 -0.328125,-0.82812 -0.890625,-1.23437 -0.5625,-0.40625 -1.234375,-0.40625 -0.671875,0 -1.171875,0.39062 -0.5,0.39063 -0.84375,1.28125 -0.234375,0.57813 -0.703125,2.5625 -0.46875,1.96875 -0.890625,2.75 -0.53125,1.03125 -1.328125,1.53125 -0.796875,0.5 -1.78125,0.5 -1.09375,0 -2.03125,-0.60937 -0.9375,-0.60938 -1.421875,-1.79688 -0.5,-1.1875 -0.5,-2.625 0,-1.59375 0.515625,-2.8125 0.515625,-1.21875 1.515625,-1.85937 0.984375,-0.65625 2.25,-0.70313 l 0.140625,1.8125 q -1.359375,0.14063 -2.046875,0.98438 -0.703125,0.84375 -0.703125,2.5 0,1.71875 0.640625,2.51562 0.625,0.78125 1.5,0.78125 0.78125,0 1.28125,-0.5625 0.5,-0.54687 1.015625,-2.85937 0.515625,-2.3125 0.90625,-3.17188 0.578125,-1.25 1.46875,-1.84375 0.875,-0.59375 2.03125,-0.59375 1.140625,0 2.15625,0.65625 1.015625,0.65625 1.578125,1.89063 0.5625,1.21875 0.5625,2.75 0,1.9375 -0.5625,3.25 -0.578125,1.3125 -1.71875,2.0625 -1.140625,0.75 -2.5625,0.78125 z m 3.3125,-20.52734 q 0.828125,0.98437 1.171875,1.89062 0.34375,0.90625 0.34375,1.9375 0,1.70313 -0.828125,2.625 -0.84375,0.92188 -2.140625,0.92188 -0.765625,0 -1.390625,-0.34375 -0.625,-0.35938 -1,-0.92188 -0.390625,-0.5625 -0.59375,-1.26562 -0.125,-0.51563 -0.265625,-1.5625 -0.25,-2.125 -0.59375,-3.125 -0.359375,-0.0156 -0.46875,-0.0156 -1.0625,0 -1.515625,0.5 -0.59375,0.67188 -0.59375,2 0,1.25 0.4375,1.84375 0.4375,0.57813 1.546875,0.85938 l -0.234375,1.71875 q -1.109375,-0.23438 -1.78125,-0.76563 -0.6875,-0.53125 -1.046875,-1.54687 -0.375,-1.01563 -0.375,-2.35938 0,-1.32812 0.3125,-2.15625 0.3125,-0.82812 0.796875,-1.21875 0.46875,-0.39062 1.1875,-0.54687 0.453125,-0.0937 1.625,-0.0937 h 2.34375 q 2.453125,0 3.109375,-0.10938 0.640625,-0.10937 1.234375,-0.45312 v 1.84375 q -0.546875,0.26562 -1.28125,0.34375 z m -3.921875,0.15625 q 0.390625,0.95312 0.65625,2.875 0.15625,1.07812 0.359375,1.53125 0.1875,0.4375 0.5625,0.6875 0.375,0.25 0.84375,0.25 0.703125,0 1.171875,-0.53125 0.46875,-0.53125 0.46875,-1.5625 0,-1.01563 -0.4375,-1.79688 -0.453125,-0.79687 -1.21875,-1.17187 -0.609375,-0.28125 -1.765625,-0.28125 z m 5.203125,-4.4668 h -14.3125 v -1.75 h 14.3125 z M 43.69315,163.59471 h -2.015625 v -1.76562 h 2.015625 z m 12.296875,0 h -10.375 v -1.76562 h 10.375 z m -3.34375,-11.5371 0.234375,-1.8125 q 1.578125,0.42187 2.46875,1.59375 0.875,1.15625 0.875,2.96875 0,2.26562 -1.390625,3.60937 -1.40625,1.32813 -3.9375,1.32813 -2.625,0 -4.0625,-1.34375 -1.453125,-1.34375 -1.453125,-3.5 0,-2.07813 1.421875,-3.39063 1.40625,-1.32812 3.984375,-1.32812 0.15625,0 0.46875,0.0156 v 7.73438 q 1.703125,-0.0937 2.609375,-0.96875 0.90625,-0.875 0.90625,-2.17188 0,-0.96875 -0.5,-1.64062 -0.515625,-0.6875 -1.625,-1.09375 z m -2.84375,5.78125 v -5.79688 q -1.296875,0.10938 -1.953125,0.65625 -1.015625,0.84375 -1.015625,2.1875 0,1.20313 0.8125,2.03125 0.796875,0.82813 2.15625,0.92188 z m 6.1875,-9.79493 h -10.375 v -1.59375 H 47.0994 q -1.71875,-1.14062 -1.71875,-3.29687 0,-0.9375 0.34375,-1.71875 0.328125,-0.79688 0.875,-1.1875 0.546875,-0.39063 1.296875,-0.54688 0.5,-0.0937 1.71875,-0.0937 h 6.375 v 1.76563 h -6.3125 q -1.078125,0 -1.609375,0.20312 -0.53125,0.20313 -0.84375,0.73438 -0.3125,0.51562 -0.3125,1.21875 0,1.125 0.71875,1.9375 0.703125,0.8125 2.6875,0.8125 h 5.671875 z m -1.578125,-14.96679 1.5625,-0.25 q 0.15625,0.73437 0.15625,1.32812 0,0.95313 -0.296875,1.48438 -0.3125,0.51562 -0.796875,0.73437 -0.5,0.21875 -2.078125,0.21875 h -5.96875 v 1.28125 h -1.375 v -1.28125 h -2.5625 l -1.0625,-1.75 h 3.625 v -1.76562 h 1.375 v 1.76562 h 6.0625 q 0.75,0 0.96875,-0.0937 0.203125,-0.0937 0.34375,-0.29687 0.125,-0.21875 0.125,-0.60938 0,-0.28125 -0.07813,-0.76562 z m -10.71875,-7.28516 h -2.015625 v -1.76562 h 2.015625 z m 12.296875,0 h -10.375 v -1.76562 h 10.375 z m 0,-4.42773 h -10.375 V 119.7705 H 47.0994 q -1.71875,-1.14063 -1.71875,-3.29688 0,-0.9375 0.34375,-1.71875 0.328125,-0.79687 0.875,-1.1875 0.546875,-0.39062 1.296875,-0.54687 0.5,-0.0937 1.71875,-0.0937 h 6.375 v 1.76562 h -6.3125 q -1.078125,0 -1.609375,0.20313 -0.53125,0.20312 -0.84375,0.73437 -0.3125,0.51563 -0.3125,1.21875 0,1.125 0.71875,1.9375 0.703125,0.8125 2.6875,0.8125 h 5.671875 z m 3.96875,-11.12305 h -14.34375 v -1.60938 h 1.34375 q -0.78125,-0.5625 -1.171875,-1.26562 -0.40625,-0.71875 -0.40625,-1.73438 0,-1.32812 0.6875,-2.34375 0.6875,-1.01562 1.9375,-1.53125 1.234375,-0.53125 2.71875,-0.53125 1.59375,0 2.875,0.57813 1.265625,0.5625 1.953125,1.65625 0.671875,1.09375 0.671875,2.29687 0,0.875 -0.375,1.57813 -0.375,0.6875 -0.9375,1.14062 h 5.046875 z m -9.09375,-1.59375 q 2,0 2.953125,-0.8125 0.953125,-0.8125 0.953125,-1.96875 0,-1.17188 -0.984375,-2 -0.984375,-0.84375 -3.078125,-0.84375 -1.96875,0 -2.953125,0.82812 -1,0.8125 -1,1.9375 0,1.125 1.0625,2 1.046875,0.85938 3.046875,0.85938 z m 5.125,-16.326173 h -1.53125 q 1.765625,1.203125 1.765625,3.28125 0,0.921875 -0.34375,1.71875 -0.359375,0.796875 -0.890625,1.1875 -0.53125,0.375 -1.3125,0.53125 -0.515625,0.109375 -1.640625,0.109375 h -6.421875 v -1.75 h 5.75 q 1.375,0 1.859375,-0.109375 0.6875,-0.171875 1.09375,-0.703125 0.390625,-0.546875 0.390625,-1.328125 0,-0.796875 -0.40625,-1.484375 -0.40625,-0.703125 -1.09375,-0.984375 -0.703125,-0.296875 -2.03125,-0.296875 h -5.5625 v -1.75 h 10.375 z m -1.578125,-8.169922 1.5625,-0.25 q 0.15625,0.734375 0.15625,1.328125 0,0.953125 -0.296875,1.484375 -0.3125,0.515625 -0.796875,0.734375 -0.5,0.21875 -2.078125,0.21875 h -5.96875 v 1.28125 h -1.375 v -1.28125 h -2.5625 l -1.0625,-1.75 h 3.625 v -1.765625 h 1.375 v 1.765625 h 6.0625 q 0.75,0 0.96875,-0.09375 0.203125,-0.09375 0.34375,-0.296875 0.125,-0.21875 0.125,-0.609375 0,-0.28125 -0.07813,-0.765625 z"
       id="path537"
       inkscape:connector-curvature="0"
       style="fill:#000000;fill-rule:nonzero" />
    <path
       d="M 27.905512,359.69815 V 205.08398 h 43.622047 v 154.61417 z"
       id="path539"
       inkscape:connector-curvature="0"
       style="fill:#000000;fill-opacity:0;fill-rule:evenodd" />
    <path
       d="m 56.10551,328.18796 -14.3125,3.79687 v -1.9375 l 9.375,-2.17187 q 1.484375,-0.35938 2.9375,-0.60938 -2.296875,-0.54687 -2.65625,-0.64062 l -9.65625,-2.73438 v -2.28125 l 7.234375,-2.04687 q 2.703125,-0.78125 5.078125,-1.125 -1.359375,-0.26563 -3.125,-0.70313 l -9.1875,-2.25 v -1.90625 l 14.3125,3.92188 v 1.82812 l -10.90625,3.01563 q -1.375,0.39062 -1.6875,0.45312 0.984375,0.23438 1.6875,0.42188 l 10.90625,3.03125 z m -3.34375,-22.89063 0.234375,-1.8125 q 1.578125,0.42188 2.46875,1.59375 0.875,1.15625 0.875,2.96875 0,2.26563 -1.390625,3.60938 -1.40625,1.32812 -3.9375,1.32812 -2.625,0 -4.0625,-1.34375 -1.453125,-1.34375 -1.453125,-3.5 0,-2.07812 1.421875,-3.39062 1.40625,-1.32813 3.984375,-1.32813 0.15625,0 0.46875,0.0156 v 7.73437 q 1.703125,-0.0937 2.609375,-0.96875 0.90625,-0.875 0.90625,-2.17187 0,-0.96875 -0.5,-1.64063 -0.515625,-0.6875 -1.625,-1.09375 z m -2.84375,5.78125 v -5.79687 q -1.296875,0.10937 -1.953125,0.65625 -1.015625,0.84375 -1.015625,2.1875 0,1.20312 0.8125,2.03125 0.796875,0.82812 2.15625,0.92187 z m 4.90625,-16.57617 q 0.828125,0.98438 1.171875,1.89063 0.34375,0.90625 0.34375,1.9375 0,1.70312 -0.828125,2.625 -0.84375,0.92187 -2.140625,0.92187 -0.765625,0 -1.390625,-0.34375 -0.625,-0.35937 -1,-0.92187 -0.390625,-0.5625 -0.59375,-1.26563 -0.125,-0.51562 -0.265625,-1.5625 -0.25,-2.125 -0.59375,-3.125 -0.359375,-0.0156 -0.46875,-0.0156 -1.0625,0 -1.515625,0.5 -0.59375,0.67187 -0.59375,2 0,1.25 0.4375,1.84375 0.4375,0.57812 1.546875,0.85937 l -0.234375,1.71875 q -1.109375,-0.23437 -1.78125,-0.76562 -0.6875,-0.53125 -1.046875,-1.54688 -0.375,-1.01562 -0.375,-2.35937 0,-1.32813 0.3125,-2.15625 0.3125,-0.82813 0.796875,-1.21875 0.46875,-0.39063 1.1875,-0.54688 0.453125,-0.0937 1.625,-0.0937 h 2.34375 q 2.453125,0 3.109375,-0.10937 0.640625,-0.10938 1.234375,-0.45313 v 1.84375 q -0.546875,0.26563 -1.28125,0.34375 z m -3.921875,0.15625 q 0.390625,0.95313 0.65625,2.875 0.15625,1.07813 0.359375,1.53125 0.1875,0.4375 0.5625,0.6875 0.375,0.25 0.84375,0.25 0.703125,0 1.171875,-0.53125 0.46875,-0.53125 0.46875,-1.5625 0,-1.01562 -0.4375,-1.79687 -0.453125,-0.79688 -1.21875,-1.17188 -0.609375,-0.28125 -1.765625,-0.28125 z m 5.203125,-4.51367 h -14.3125 v -1.76562 h 8.15625 l -4.21875,-4.15625 v -2.26563 l 3.84375,3.95313 6.53125,-4.35938 v 2.17188 l -5.296875,3.42187 1.1875,1.23438 H 56.10551 Z M 43.808635,274.58835 H 41.79301 v -1.76563 h 2.015625 z m 12.296875,0 h -10.375 v -1.76563 h 10.375 z m 0,-4.42773 h -10.375 v -1.59375 h 1.484375 q -1.71875,-1.14063 -1.71875,-3.29688 0,-0.9375 0.34375,-1.71875 0.328125,-0.79687 0.875,-1.1875 0.546875,-0.39062 1.296875,-0.54687 0.5,-0.0937 1.71875,-0.0937 h 6.375 v 1.76562 h -6.3125 q -1.078125,0 -1.609375,0.20313 -0.53125,0.20312 -0.84375,0.73437 -0.3125,0.51563 -0.3125,1.21875 0,1.125 0.71875,1.9375 0.703125,0.8125 2.6875,0.8125 h 5.671875 z m 3.968746,-11.12305 H 45.73051 v -1.60938 h 1.34375 q -0.78125,-0.5625 -1.171875,-1.26562 -0.40625,-0.71875 -0.40625,-1.73438 0,-1.32812 0.6875,-2.34375 0.6875,-1.01562 1.9375,-1.53125 1.234375,-0.53125 2.71875,-0.53125 1.59375,0 2.875,0.57813 1.265625,0.5625 1.953125,1.65625 0.671875,1.09375 0.671875,2.29687 0,0.875 -0.375,1.57813 -0.375,0.6875 -0.9375,1.14062 h 5.046871 z m -9.093746,-1.59375 q 2,0 2.953125,-0.8125 0.953125,-0.8125 0.953125,-1.96875 0,-1.17188 -0.984375,-2 -0.984375,-0.84375 -3.078125,-0.84375 -1.96875,0 -2.953125,0.82812 -1,0.8125 -1,1.9375 0,1.125 1.0625,2 1.046875,0.85938 3.046875,0.85938 z m 5.125,-16.32617 h -1.53125 q 1.765625,1.20312 1.765625,3.28125 0,0.92187 -0.34375,1.71875 -0.359375,0.79687 -0.890625,1.1875 -0.53125,0.375 -1.3125,0.53125 -0.515625,0.10937 -1.640625,0.10937 H 45.73051 v -1.75 h 5.75 q 1.375,0 1.859375,-0.10937 0.6875,-0.17188 1.09375,-0.70313 0.390625,-0.54687 0.390625,-1.32812 0,-0.79688 -0.40625,-1.48438 -0.40625,-0.70312 -1.09375,-0.98437 -0.703125,-0.29688 -2.03125,-0.29688 h -5.5625 v -1.75 h 10.375 z m -1.578125,-8.16993 1.5625,-0.25 q 0.15625,0.73438 0.15625,1.32813 0,0.95312 -0.296875,1.48437 -0.3125,0.51563 -0.796875,0.73438 -0.5,0.21875 -2.078125,0.21875 h -5.96875 v 1.28125 h -1.375 v -1.28125 h -2.5625 l -1.0625,-1.75 h 3.625 v -1.76563 h 1.375 v 1.76563 h 6.0625 q 0.75,0 0.96875,-0.0937 0.203125,-0.0937 0.34375,-0.29688 0.125,-0.21875 0.125,-0.60937 0,-0.28125 -0.07813,-0.76563 z"
       id="path541"
       inkscape:connector-curvature="0"
       style="fill:#000000;fill-rule:nonzero" />
  </g>
</svg>
